<?xml version="1.0" encoding="UTF-8"?>
<svg version="1.1" xmlns="http://www.w3.org/2000/svg" width="1024" height="1024">
<path d="M0 0 C0 0.66 0 1.32 0 2 C1.15886719 2.0928125 2.31773437 2.185625 3.51171875 2.28125 C8.09703628 2.86210395 11.73422932 4.38731877 15.8125 6.5 C16.84310547 7.02424561 16.84310547 7.02424561 17.89453125 7.55908203 C24.21116087 10.8926951 29.97957636 14.87321145 35 20 C35 20.66 35 21.32 35 22 C35.66 22 36.32 22 37 22 C38.29345703 23.37011719 38.29345703 23.37011719 39.7578125 25.296875 C40.30179688 26.00972656 40.84578125 26.72257812 41.40625 27.45703125 C41.9734375 28.21371094 42.540625 28.97039062 43.125 29.75 C43.66898438 30.46027344 44.21296875 31.17054688 44.7734375 31.90234375 C48.58067861 36.92825783 52.11550696 42.10192933 55.58935547 47.36230469 C58.54861118 51.84106678 61.55750051 56.28623411 64.5625 60.734375 C65.77556482 62.5311609 66.98861795 64.32795469 68.20166016 66.12475586 C68.82228333 67.04384735 69.44290649 67.96293884 70.08233643 68.90988159 C87.43518316 94.60997838 87.43518316 94.60997838 95.625 106.9375 C107.57023792 124.91223896 119.74548599 142.73420567 131.92993164 160.54736328 C135.94723988 166.42786432 139.90856679 172.3441324 143.85195923 178.27441406 C146.00296662 181.5075293 148.15809961 184.73789519 150.3125 187.96875 C151.25262069 189.37889524 152.19272468 190.7890516 153.1328125 192.19921875 C153.60493164 192.90739746 154.07705078 193.61557617 154.56347656 194.34521484 C161.37565104 204.56347656 168.18782552 214.78173828 175 225 C175.00219984 223.91941283 175.00219984 223.91941283 175.00444412 222.81699562 C175.04165076 205.21053061 175.10084709 187.60427328 175.18390274 169.99796486 C175.2235505 161.48334095 175.25601487 152.96880756 175.27099609 144.45410156 C175.28408716 137.02439845 175.31123927 129.59489569 175.35461307 122.1653055 C175.37706209 118.23886442 175.39292079 114.31266892 175.39188385 110.38615799 C175.39275676 78.54278185 179.53794973 51.68997327 202.25390625 27.66015625 C224.7479293 5.87007133 252.5116669 -0.33387052 282.97973633 -0.25878906 C284.84894954 -0.26150514 286.71816168 -0.2650695 288.58737183 -0.26940918 C293.6221376 -0.27845902 298.65682062 -0.2750206 303.69158769 -0.26865101 C308.97910155 -0.26355617 314.26660875 -0.26829174 319.55412292 -0.27142334 C328.42468528 -0.27505129 337.29521421 -0.27029306 346.16577148 -0.26074219 C356.4064869 -0.2498431 366.64712276 -0.25339849 376.88783628 -0.264395 C385.70432903 -0.27348128 394.52079788 -0.27474709 403.3372938 -0.26951766 C408.59284977 -0.2664075 413.84836836 -0.26596269 419.10392189 -0.27259064 C424.04113989 -0.2783836 428.97825551 -0.27433157 433.91546249 -0.26280212 C435.72259412 -0.26016669 437.52973443 -0.26090147 439.33686256 -0.26532745 C453.11057848 -0.29594271 463.83084301 0.13048162 474.75 9.3125 C480.68932028 16.40668811 482.74800824 23.86069938 482 33 C480.39133051 40.09334579 476.5113539 46.42536776 470.6875 50.8125 C459.75907193 56.83833747 443.93448827 55.27031156 431.7746582 55.17944336 C430.01016497 55.1739518 428.24566859 55.16940763 426.48117065 55.16572571 C422.71580223 55.15610011 418.95052969 55.14035476 415.18520546 55.11976433 C409.21969117 55.08763833 403.25420306 55.07238245 397.28862 55.05970764 C382.48060565 55.02580767 367.6726668 54.97300842 352.86474609 54.9105835 C341.33230114 54.86201309 329.79992269 54.81998247 318.26738995 54.79907519 C312.34827118 54.78761867 306.42942975 54.76233167 300.51041186 54.72632778 C296.81906057 54.70701793 293.1277641 54.70044191 289.43636703 54.69726372 C287.73732004 54.69327523 286.03827532 54.68417007 284.33928871 54.66930008 C270.45190909 54.55222001 257.53073584 55.31478645 246 64 C244.93458984 65.08474609 244.93458984 65.08474609 243.84765625 66.19140625 C242 68 242 68 240 68 C239.7421875 68.52207031 239.484375 69.04414063 239.21875 69.58203125 C238.28035692 71.44377906 237.3172306 73.29307508 236.34375 75.13671875 C235.72892661 76.32018782 235.11434945 77.50378484 234.5 78.6875 C233.8915625 79.84636719 233.283125 81.00523437 232.65625 82.19921875 C229.23896251 89.46807735 228.70072799 96.99980383 228.68115234 104.92602539 C228.67110672 105.87343597 228.6610611 106.82084656 228.65071106 107.79696655 C228.62006802 110.89719084 228.60289675 113.99732954 228.5859375 117.09765625 C228.56721065 119.25956448 228.54763612 121.42146552 228.5272522 123.58335876 C228.47608533 129.25002793 228.43637716 134.91672075 228.39910889 140.58349609 C228.35897212 146.3753843 228.30792403 152.1671754 228.2578125 157.95898438 C228.16123621 169.30592122 228.07677319 180.65291309 228 192 C229.39810724 191.99585193 229.39810724 191.99585193 230.82445908 191.99162006 C253.53593962 191.9249306 276.24740742 191.87567967 298.9589653 191.84456348 C309.9422428 191.8291148 320.9254555 191.80806353 331.90869141 191.77368164 C341.48509715 191.74371806 351.06145594 191.72441048 360.63790727 191.71773452 C365.70545914 191.71383404 370.77287673 191.70470915 375.84038544 191.68280983 C380.61738783 191.66233464 385.39420156 191.65618837 390.17124367 191.66067696 C391.91745087 191.65985667 393.66366487 191.65395711 395.40983391 191.64238358 C420.4326737 191.48477264 420.4326737 191.48477264 430.01953125 199.796875 C435.33376394 205.7085658 438.3207689 212.28294597 438.5625 220.25 C438.09437568 228.39961889 435.84290872 234.15709128 430 240 C422.68990557 245.66297015 415.1192079 247.31655187 405.97668457 247.24050903 C405.21030843 247.24221788 404.44393229 247.24392673 403.65433264 247.24568737 C401.10865001 247.2489588 398.56323611 247.23801765 396.01757812 247.22705078 C394.18390916 247.22648616 392.35023975 247.22680422 390.51657104 247.22793579 C385.55435322 247.22850831 380.5922326 247.21677027 375.63003731 247.20278788 C370.43838116 247.19026376 365.24672264 247.18910869 360.05505371 247.18673706 C350.23090938 247.18052724 340.40680969 247.16412314 330.58268499 247.14403808 C319.39529416 247.1216636 308.20790116 247.11068175 297.02049351 247.10064721 C274.01363761 247.07975648 251.00682131 247.04459017 228 247 C228.06150345 256.57173142 228.13881654 266.14317212 228.23571491 275.71461105 C228.28023619 280.16014505 228.31953125 284.60559124 228.34643555 289.05126953 C228.37265215 293.35030539 228.41318065 297.64899997 228.46318626 301.94782257 C228.47973194 303.57901987 228.49132211 305.21027603 228.49761391 306.8415451 C228.55013027 319.21815066 229.39907271 330.79371041 235.9375 341.625 C236.52772949 342.63518188 236.52772949 342.63518188 237.12988281 343.66577148 C241.47427887 350.99166545 246.22014565 358.04976103 251.01660156 365.08447266 C252.93069953 367.8981307 254.83509935 370.71807413 256.73657227 373.54026794 C258.57068114 376.26241554 260.4069142 378.9831263 262.24353027 381.70358276 C263.14792712 383.04329601 264.05199277 384.3832329 264.95568848 385.72341919 C269.70941539 392.76843182 274.50634805 399.77917058 279.4296875 406.70703125 C279.83724274 407.28294006 280.24479797 407.85884888 280.66470337 408.45220947 C291.28649048 423.30327474 306.8522362 432.11604849 324.60285187 435.61000061 C328.61565122 436.26285526 332.62237149 436.44836583 336.68066406 436.60546875 C337.5897414 436.64433701 338.49881874 436.68320526 339.43544388 436.72325134 C348.59817841 437.08155402 357.75549504 437.11601433 366.92394257 437.07516479 C369.89593718 437.0620633 372.86788571 437.0558029 375.83990479 437.05102539 C382.14329099 437.03976448 388.44663802 437.02051758 394.75 437 C402.08395388 436.97618619 409.41788536 436.95587996 416.7518692 436.94406128 C419.64570721 436.93769506 422.53947325 436.92519813 425.43328857 436.91235352 C433.81278378 436.88845279 442.16766651 436.96039841 450.53613281 437.421875 C451.57105677 437.47643105 451.57105677 437.47643105 452.62688828 437.53208923 C461.66789538 438.1049208 468.8738897 441.46756753 475.125 448.125 C480.49542564 454.76736855 482.67181885 461.89630811 482.32421875 470.39453125 C481.24974961 479.02912057 476.75055257 486.14730079 470.05078125 491.61328125 C460.78397265 497.87940897 450.42801146 498.14928645 439.63015747 498.14717102 C438.61105061 498.15084771 437.59194376 498.1545244 436.54195487 498.1583125 C433.14010665 498.16929171 429.73828903 498.17318338 426.33642578 498.17700195 C423.89157516 498.18327104 421.44672548 498.18991824 419.00187683 498.19691467 C411.67543758 498.21609487 404.34900091 498.22673625 397.02254421 498.23564246 C393.56309249 498.24003714 390.10364228 498.24540086 386.64419174 498.25063133 C375.12831757 498.26763657 363.61244431 498.28212757 352.09655952 498.28938007 C349.11320113 498.29128962 346.12984274 498.29321001 343.14648438 498.29516602 C342.40508567 498.29564976 341.66368696 498.2961335 340.89982162 498.2966319 C328.90733611 498.30492058 316.91495071 498.33024098 304.92250885 498.36274669 C292.58017126 498.39592514 280.23788436 498.41383854 267.89550197 498.41702431 C260.97786991 498.41917948 254.06038385 498.42778117 247.14279556 498.45348549 C240.6272642 498.47764158 234.11192325 498.480951 227.59635353 498.47072411 C225.21731379 498.47023154 222.83826064 498.47646866 220.45926094 498.49028015 C195.81584377 498.6252366 174.08864742 495.58325382 155.74609375 477.90625 C149.94415319 471.76593168 144.78054298 465.53555745 140.15625 458.4609375 C139.62961761 457.66608444 139.10298523 456.87123138 138.56039429 456.05229187 C136.8684004 453.49658627 135.18429001 450.93578752 133.5 448.375 C131.74119711 445.71539085 129.98020065 443.0572439 128.21896362 440.39924622 C127.06251666 438.65388124 125.90668817 436.90810632 124.75149536 435.16191101 C120.51276163 428.75802054 116.22179816 422.39366669 111.875 416.0625 C104.84238961 405.80344133 97.94436011 395.45714078 91.06005859 385.09814453 C87.5035529 379.74947692 83.93878636 374.40631802 80.375 369.0625 C79.09110916 367.1367432 77.80725318 365.21096316 76.5234375 363.28515625 C75.93143555 362.39844238 75.33943359 361.51172852 74.72949219 360.59814453 C73.57428951 358.86273136 72.4239085 357.12409912 71.27832031 355.38232422 C70.74561523 354.57424316 70.21291016 353.76616211 69.6640625 352.93359375 C69.19693848 352.22130615 68.72981445 351.50901855 68.24853516 350.77514648 C66.9845695 348.87018315 66.9845695 348.87018315 65 347 C64.06401828 345.35870192 63.12998592 343.71625273 62.20724487 342.06747437 C59.9050383 338.12481685 57.29055702 334.38594698 54.72265625 330.61328125 C54.11546249 329.71618942 53.50826874 328.8190976 52.88267517 327.89482117 C50.94499628 325.03242656 49.00407478 322.17225316 47.0625 319.3125 C39.52772027 308.20906997 32.0113604 297.09706289 24.68359375 285.85546875 C24.13848648 285.02130936 23.59337921 284.18714996 23.03175354 283.32771301 C22.27824867 282.16618965 22.27824867 282.16618965 21.50952148 280.98120117 C20.85209206 279.96880623 20.85209206 279.96880623 20.18138123 278.93595886 C16.2961919 272.56920227 15.28536814 265.92558088 16.36328125 258.49609375 C18.31459657 251.61261947 22.4362939 246.33904488 28.3984375 242.42578125 C35.92545871 238.38434986 42.4800929 237.07592205 50.84765625 239.29296875 C61.2033034 242.69473306 67.36177459 251.19024354 72.98046875 260.13671875 C76.61351196 265.86686291 80.32416775 271.53973403 84.08984375 277.18359375 C84.63300232 277.99783813 85.17616089 278.81208252 85.73577881 279.65100098 C87.46881583 282.2470828 89.20315562 284.84229143 90.9375 287.4375 C92.17199891 289.28670114 93.40637156 291.13598657 94.640625 292.98535156 C97.177721 296.78663079 99.71536569 300.5875428 102.25341797 304.38818359 C107.46332822 312.19069763 112.66661884 319.99762204 117.86993408 327.80453491 C119.50205626 330.25308485 121.13451616 332.70140929 122.76708984 335.1496582 C127.57879182 342.36561456 132.38886954 349.58262741 137.19140625 356.8046875 C147.383161 372.12639021 157.64533295 387.3989184 167.97338867 402.62915039 C172.61433114 409.47715601 177.24320507 416.32956787 181.7578125 423.26171875 C194.7081252 443.84166177 194.7081252 443.84166177 214 458 C214.66902344 458.33644531 215.33804687 458.67289063 216.02734375 459.01953125 C224.77659525 462.69723966 236.96823619 462.54052507 245.8125 459.3125 C249.59115789 457.44570139 252.16277636 455.92497778 254 452 C256.24302085 440.87758256 249.73963648 433.10059678 243.8996582 424.30786133 C240.23275601 418.83146585 236.52442218 413.38343824 232.8125 407.9375 C225.05604166 396.55027428 217.37761088 385.14276232 210.06825256 373.46212769 C206.26779771 367.39373725 202.32539046 361.45080059 198.25 355.5625 C196.96962592 353.69820928 195.68967354 351.83362886 194.41015625 349.96875 C193.81734863 349.10636719 193.22454102 348.24398438 192.61376953 347.35546875 C189.35846161 342.60399964 186.1809061 337.80149405 183 333 C181.50063106 330.74957605 180.00069934 328.49953622 178.5 326.25 C175.60407418 321.90889582 172.71109278 317.5658803 169.82421875 313.21875 C163.43099974 303.60093172 157.00963503 294.0034313 150.5390625 284.4375 C137.47211652 265.11564988 124.49436171 245.74296149 111.69107056 226.24523926 C102.13886925 211.70331724 92.45833304 197.2536294 82.70361328 182.84692383 C71.9956786 167.02699256 61.44856672 151.10523197 50.97851562 135.12695312 C44.37901026 125.06463071 37.6821215 115.07907796 30.85742188 105.16796875 C28.19953706 101.30403538 25.58913651 97.41025029 23 93.5 C20.21211588 89.29181395 17.39421385 85.10809956 14.52734375 80.953125 C13.93244141 80.09009766 13.33753906 79.22707031 12.72460938 78.33789062 C11.55327882 76.64170156 10.37890518 74.94760902 9.20117188 73.25585938 C8.66943359 72.48564453 8.13769531 71.71542969 7.58984375 70.921875 C7.11409912 70.23706055 6.63835449 69.55224609 6.14819336 68.84667969 C5 67 5 67 4 64 C2.515 63.505 2.515 63.505 1 63 C1 62.34 1 61.68 1 61 C0.46375 60.731875 -0.0725 60.46375 -0.625 60.1875 C-2.40850856 59.29574572 -4.17703198 58.37391916 -5.9375 57.4375 C-12.82265727 54.20569149 -21.06134441 53.75671489 -28.3125 56.1875 C-34.8114332 59.0063144 -39.10645871 64.68465236 -42 71 C-44.32276533 80.61933688 -44.28168998 90.43316796 -44.24482727 100.26396179 C-44.24625261 101.87260292 -44.24856869 103.48124346 -44.25168961 105.08988219 C-44.2577468 109.47644944 -44.25158343 113.86292508 -44.243379 118.24948561 C-44.23675532 122.99319067 -44.24180679 127.73688469 -44.24560547 132.48059082 C-44.25081431 140.69041933 -44.24934704 148.9002242 -44.24382973 157.11005211 C-44.23559568 170.08956699 -44.24686462 183.06903127 -44.2610321 196.04853821 C-44.26563241 200.4944371 -44.27008287 204.94033613 -44.27447033 209.38623524 C-44.27611754 211.05249143 -44.27611754 211.05249143 -44.27779803 212.75240937 C-44.28995621 225.37831325 -44.29752003 238.00421875 -44.3034668 250.63012695 C-44.30401486 251.78350148 -44.30456292 252.936876 -44.30512758 254.12520126 C-44.3135953 272.83498472 -44.31024356 291.54475382 -44.30431245 310.25453737 C-44.2986953 329.48105971 -44.31222438 348.70750964 -44.34186524 367.93400985 C-44.3593998 379.78492911 -44.36104724 391.63563894 -44.34222009 403.48655722 C-44.33061557 411.60399361 -44.33706 419.72128857 -44.3576893 427.83870658 C-44.36900826 432.52055346 -44.37218735 437.20203585 -44.35351372 441.88386726 C-44.33656539 446.17277141 -44.34274082 450.46100827 -44.36701228 454.74987147 C-44.37172772 456.2981008 -44.36806179 457.84638413 -44.35498682 459.39456543 C-44.27901106 469.06162475 -44.86759882 477.50850385 -51.77221376 484.89620894 C-58.04967684 490.70625977 -64.50945554 492.97359084 -73 493 C-79.60133883 492.43662043 -85.04375794 489.28469018 -90 485 C-95.39353229 478.54608879 -97.24743728 471.32278132 -97.25726891 462.97602463 C-97.26252802 461.96448867 -97.26252802 461.96448867 -97.26789337 460.93251765 C-97.27717233 458.68041262 -97.27229318 456.42856818 -97.26742554 454.17645264 C-97.27116362 452.54227973 -97.27576577 450.90810861 -97.28115618 449.27394032 C-97.2933831 444.78859051 -97.29312604 440.30331531 -97.29076743 435.81795263 C-97.29035916 430.97784623 -97.30139974 426.13776372 -97.31088257 421.29766846 C-97.32749434 411.81458402 -97.33299229 402.33152444 -97.33410732 392.84842667 C-97.33505818 385.13469835 -97.33917038 377.42097823 -97.34550858 369.7072525 C-97.36312527 347.82051667 -97.37234735 325.93380045 -97.37084763 304.04705748 C-97.37072776 302.27724547 -97.37072776 302.27724547 -97.37060547 300.47167969 C-97.37052371 299.29035742 -97.37044195 298.10903515 -97.37035771 296.89191523 C-97.36954578 277.77071029 -97.38865882 258.6495843 -97.4168822 239.52840218 C-97.44565634 219.87829758 -97.45941985 200.22823141 -97.45769465 180.57810521 C-97.45703208 169.55300009 -97.46246551 158.52797763 -97.48405075 147.50289154 C-97.50232271 138.11001001 -97.50656108 128.71724856 -97.4930319 119.32435688 C-97.48653111 114.53819058 -97.48627944 109.75225422 -97.5037384 104.96611023 C-97.6570352 60.16250167 -97.6570352 60.16250167 -89.25 43.9375 C-88.90493408 43.24253418 -88.55986816 42.54756836 -88.2043457 41.83154297 C-85.16755115 35.92065159 -81.54678561 30.85642334 -77 26 C-76.17757812 25.08734375 -75.35515625 24.1746875 -74.5078125 23.234375 C-62.54008426 10.53817634 -47.33070244 2.42797281 -30 0 C-28.81470703 -0.18369141 -28.81470703 -0.18369141 -27.60546875 -0.37109375 C-18.42342295 -1.51356028 -9.19559278 -0.61939226 0 0 Z " fill="#02BFC5" transform="translate(319,264)"/>
<path d="M0 0 C2.6955827 2.63431945 4.91861187 5.13963655 7.015625 8.28515625 C6.685625 9.27515625 6.355625 10.26515625 6.015625 11.28515625 C5.396875 10.39763672 5.396875 10.39763672 4.765625 9.4921875 C0.24133478 3.30158504 -3.93444856 -1.60002081 -11.65625 -3.3046875 C-20.88827763 -4.43956383 -27.41481043 -2.7877256 -35 2.57421875 C-39.18681918 6.18411403 -41.44558671 10.7625763 -41.984375 16.28515625 C-42.62211393 26.01067499 -39.11980938 32.65596234 -33.546875 40.34765625 C-30.78818931 44.20832705 -28.07373121 48.01736319 -25.7578125 52.1640625 C-24.19230838 55.25979239 -24.19230838 55.25979239 -22.046875 57.16015625 C-19.51088776 59.77299159 -18.1126234 62.58443316 -16.40625 65.78125 C-13.91743405 70.16402754 -10.9169046 74.19212322 -7.984375 78.28515625 C-3.984375 83.95767087 -3.984375 83.95767087 -3.984375 86.28515625 C-3.324375 86.28515625 -2.664375 86.28515625 -1.984375 86.28515625 C1.015625 90.66977163 1.015625 90.66977163 1.015625 93.28515625 C1.675625 93.28515625 2.335625 93.28515625 3.015625 93.28515625 C5.05731985 96.19064507 6.015625 97.68657671 6.015625 101.28515625 C7.005625 101.61515625 7.995625 101.94515625 9.015625 102.28515625 C12.015625 107.50737847 12.015625 107.50737847 12.015625 110.28515625 C13.335625 110.94515625 14.655625 111.60515625 16.015625 112.28515625 C16.015625 113.27515625 16.015625 114.26515625 16.015625 115.28515625 C16.675625 115.28515625 17.335625 115.28515625 18.015625 115.28515625 C19.995625 118.91515625 21.975625 122.54515625 24.015625 126.28515625 C24.675625 126.28515625 25.335625 126.28515625 26.015625 126.28515625 C26.304375 127.41953125 26.593125 128.55390625 26.890625 129.72265625 C27.261875 130.89828125 27.633125 132.07390625 28.015625 133.28515625 C28.675625 133.61515625 29.335625 133.94515625 30.015625 134.28515625 C31.27609607 136.06179307 32.47685878 137.88122369 33.640625 139.72265625 C34.27226562 140.71136719 34.90390625 141.70007813 35.5546875 142.71875 C37.015625 145.28515625 37.015625 145.28515625 37.015625 147.28515625 C37.94375 147.62546875 37.94375 147.62546875 38.890625 147.97265625 C41.68295534 149.69733087 41.84322447 151.25070781 43.015625 154.28515625 C44.67809514 156.28864591 46.34495367 158.28850027 48.015625 160.28515625 C48.47324219 161.20554687 48.93085938 162.1259375 49.40234375 163.07421875 C51.13921676 166.53114275 53.16547898 169.55960738 55.390625 172.72265625 C55.78983154 173.29322754 56.18903809 173.86379883 56.6003418 174.45166016 C58.64926221 177.37440325 60.72760222 180.27439131 62.828125 183.16015625 C69.015625 191.99944196 69.015625 191.99944196 69.015625 195.28515625 C69.675625 195.28515625 70.335625 195.28515625 71.015625 195.28515625 C71.551875 196.27515625 72.088125 197.26515625 72.640625 198.28515625 C74.71911848 201.96364112 77.19180144 205.20616669 79.84375 208.48828125 C81.015625 210.28515625 81.015625 210.28515625 81.015625 213.28515625 C82.005625 213.61515625 82.995625 213.94515625 84.015625 214.28515625 C84.73205398 215.59242506 85.391385 216.93144039 86.015625 218.28515625 C88.24179686 221.36927344 90.63854272 224.316376 93.015625 227.28515625 C93.48742187 227.89488281 93.95921875 228.50460937 94.4453125 229.1328125 C96.69727308 231.97923472 98.57047385 234.00917434 102.015625 235.28515625 C102.015625 235.94515625 102.015625 236.60515625 102.015625 237.28515625 C103.005625 237.28515625 103.995625 237.28515625 105.015625 237.28515625 C105.015625 237.94515625 105.015625 238.60515625 105.015625 239.28515625 C106.005625 239.28515625 106.995625 239.28515625 108.015625 239.28515625 C108.015625 239.94515625 108.015625 240.60515625 108.015625 241.28515625 C109.005625 241.28515625 109.995625 241.28515625 111.015625 241.28515625 C111.015625 241.94515625 111.015625 242.60515625 111.015625 243.28515625 C112.19125 243.25421875 112.19125 243.25421875 113.390625 243.22265625 C116.015625 243.28515625 116.015625 243.28515625 118.015625 244.28515625 C118.015625 244.94515625 118.015625 245.60515625 118.015625 246.28515625 C118.94375 246.24390625 119.871875 246.20265625 120.828125 246.16015625 C124.015625 246.28515625 124.015625 246.28515625 127.015625 248.28515625 C128.68181946 248.32482755 130.34953513 248.32900072 132.015625 248.28515625 C132.345625 248.61515625 132.675625 248.94515625 133.015625 249.28515625 C134.42353585 249.38348798 135.83635213 249.41254623 137.24769211 249.4137907 C138.16621609 249.41701515 139.08474008 249.4202396 140.03109813 249.42356175 C141.05198504 249.42201315 142.07287195 249.42046455 143.12469482 249.41886902 C144.20007924 249.42113458 145.27546366 249.42340013 146.38343549 249.42573434 C150.01702755 249.43210667 153.65058263 249.43124291 157.28417969 249.43041992 C159.87716724 249.43340944 162.47015435 249.43681149 165.06314087 249.44059753 C171.3940436 249.44892111 177.72493702 249.45165317 184.05584475 249.45220991 C189.20118433 249.45268439 194.34652083 249.45473572 199.49185944 249.45791054 C214.06973204 249.46672279 228.64759726 249.47132918 243.22547254 249.47058006 C244.01216035 249.47054011 244.79884816 249.47050015 245.609375 249.47045898 C246.39702025 249.4704181 247.18466549 249.47037722 247.99617878 249.4703351 C260.75767329 249.46992876 273.51913827 249.47949379 286.28062424 249.49359735 C299.37413584 249.50795397 312.46763303 249.51486789 325.5611527 249.51400357 C332.91605325 249.51367129 340.27092287 249.51643178 347.62581635 249.52718163 C354.54336494 249.53722709 361.46084712 249.53695851 368.3783989 249.52966499 C370.92091594 249.52861604 373.463437 249.53100032 376.00594711 249.53702545 C379.47024942 249.54470465 382.93432347 249.54012746 386.39862061 249.53239441 C387.41058463 249.53753797 388.42254865 249.54268154 389.46517825 249.54798096 C394.15070894 249.52478522 397.72694673 249.3713909 402.015625 247.28515625 C403.005625 247.28515625 403.995625 247.28515625 405.015625 247.28515625 C405.015625 246.62515625 405.015625 245.96515625 405.015625 245.28515625 C406.005625 244.95515625 406.995625 244.62515625 408.015625 244.28515625 C413.79111711 239.08721335 416.25406596 235.05305842 417.015625 227.28515625 C417.675625 227.28515625 418.335625 227.28515625 419.015625 227.28515625 C419.015625 223.98515625 419.015625 220.68515625 419.015625 217.28515625 C418.355625 216.95515625 417.695625 216.62515625 417.015625 216.28515625 C416.28692028 213.97044713 415.62322982 211.63456155 415.015625 209.28515625 C414.37620756 206.20464565 414.37620756 206.20464565 412.203125 205.34765625 C411.48125 204.99703125 410.759375 204.64640625 410.015625 204.28515625 C408.68229167 202.95182292 407.34895833 201.61848958 406.015625 200.28515625 C403.11201934 198.50552697 400.36227907 197.84293193 397.015625 197.28515625 C397.015625 196.62515625 397.015625 195.96515625 397.015625 195.28515625 C396.355625 195.61515625 395.695625 195.94515625 395.015625 196.28515625 C393.48635466 196.37963033 391.95300773 196.4114555 390.42082214 196.41213989 C389.45240387 196.41495972 388.4839856 196.41777954 387.48622131 196.42068481 C386.41979904 196.41866058 385.35337677 196.41663635 384.25463867 196.41455078 C383.13406067 196.4163031 382.01348267 196.41805542 380.85894775 196.41986084 C377.13381423 196.42428097 373.4087278 196.42133861 369.68359375 196.41796875 C367.09442638 196.41864226 364.50525907 196.41961269 361.91609192 196.42086792 C356.47440942 196.42234553 351.03274465 196.42028551 345.59106445 196.41552734 C339.32922777 196.4101147 333.0674238 196.41182527 326.80558795 196.41735375 C320.76253642 196.42247296 314.71950066 196.42188615 308.67644691 196.41897202 C306.11660063 196.41830803 303.55675349 196.41911258 300.99690819 196.42145157 C297.39790074 196.42401571 293.79895414 196.4200836 290.19995117 196.41455078 C289.15579544 196.41657501 288.11163971 196.41859924 287.0358429 196.42068481 C280.59544157 196.40251377 274.23801896 196.05927105 267.82164478 195.49935722 C265.55843277 195.32659215 263.28542155 195.28515625 261.015625 195.28515625 C259.33124756 194.66459614 257.66554082 193.99226303 256.015625 193.28515625 C254.01942334 192.60720097 252.02023799 191.93782094 250.015625 191.28515625 C250.015625 190.62515625 250.015625 189.96515625 250.015625 189.28515625 C248.406875 189.09953125 248.406875 189.09953125 246.765625 188.91015625 C243.6324379 188.3879584 241.62912774 187.99398496 239.015625 186.28515625 C238.685625 185.62515625 238.355625 184.96515625 238.015625 184.28515625 C237.025625 183.79015625 236.035625 183.29515625 235.015625 182.78515625 C232.015625 181.28515625 232.015625 181.28515625 231.015625 179.28515625 C230.29375 178.89328125 229.571875 178.50140625 228.828125 178.09765625 C224.63388325 175.39470046 221.12003862 171.69915123 219.02734375 167.125 C218.0936556 164.93399136 218.0936556 164.93399136 215.015625 164.28515625 C214.29471456 162.54841747 213.57785361 160.80958347 212.90234375 159.0546875 C211.57395057 156.40375309 209.33495562 155.06925673 207.015625 153.28515625 C205.828125 150.78515625 205.828125 150.78515625 205.015625 148.28515625 C203.7256536 145.12498367 203.7256536 145.12498367 201.015625 143.28515625 C201.015625 142.29515625 201.015625 141.30515625 201.015625 140.28515625 C200.355625 140.28515625 199.695625 140.28515625 199.015625 140.28515625 C198.70109375 139.62128906 198.3865625 138.95742188 198.0625 138.2734375 C195.74536887 133.49260971 193.45945806 129.36673617 190.015625 125.28515625 C190.015625 124.62515625 190.015625 123.96515625 190.015625 123.28515625 C189.355625 123.28515625 188.695625 123.28515625 188.015625 123.28515625 C187.561875 122.31578125 187.108125 121.34640625 186.640625 120.34765625 C185.35776279 117.21436043 185.35776279 117.21436043 183.015625 116.28515625 C182.05078125 114.61328125 182.05078125 114.61328125 181.078125 112.53515625 C179.88508309 110.03245931 178.68756183 107.76478019 177.203125 105.41015625 C176.6153125 104.35828125 176.6153125 104.35828125 176.015625 103.28515625 C176.345625 102.62515625 176.675625 101.96515625 177.015625 101.28515625 C181.29907695 107.00420654 185.38309659 112.77445858 189.2109375 118.80859375 C193.83428052 126.05307559 198.61573807 133.18233549 203.453125 140.28515625 C203.86671265 140.89289886 204.28030029 141.50064148 204.7064209 142.12680054 C207.46912144 146.18442533 210.24012677 150.23627522 213.015625 154.28515625 C213.87148193 155.53546631 213.87148193 155.53546631 214.74462891 156.81103516 C227.08681464 174.76367598 241.8534898 186.61103376 263.61847687 190.89515686 C267.63127622 191.54801151 271.63799649 191.73352208 275.69628906 191.890625 C276.6053664 191.92949326 277.51444374 191.96836151 278.45106888 192.00840759 C287.61380341 192.36671027 296.77112004 192.40117058 305.93956757 192.36032104 C308.91156218 192.34721955 311.88351071 192.34095915 314.85552979 192.33618164 C321.15891599 192.32492073 327.46226302 192.30567383 333.765625 192.28515625 C341.09957888 192.26134244 348.43351036 192.24103621 355.7674942 192.22921753 C358.66133221 192.22285131 361.55509825 192.21035438 364.44891357 192.19750977 C372.82840878 192.17360904 381.18329151 192.24555466 389.55175781 192.70703125 C390.24170712 192.74340195 390.93165642 192.77977264 391.64251328 192.81724548 C400.68352038 193.39007705 407.8895147 196.75272378 414.140625 203.41015625 C419.51105064 210.0525248 421.68744385 217.18146436 421.33984375 225.6796875 C420.26537461 234.31427682 415.76617757 241.43245704 409.06640625 246.8984375 C399.79959765 253.16456522 389.44363646 253.4344427 378.64578247 253.43232727 C377.62667561 253.43600396 376.60756876 253.43968065 375.55757987 253.44346875 C372.15573165 253.45444796 368.75391403 253.45833963 365.35205078 253.4621582 C362.90720016 253.46842729 360.46235048 253.47507449 358.01750183 253.48207092 C350.69106258 253.50125112 343.36462591 253.5118925 336.03816921 253.52079871 C332.57871749 253.52519339 329.11926728 253.53055711 325.65981674 253.53578758 C314.14394257 253.55279282 302.62806931 253.56728382 291.11218452 253.57453632 C288.12882613 253.57644587 285.14546774 253.57836626 282.16210938 253.58032227 C281.42071067 253.58080601 280.67931196 253.58128975 279.91544662 253.58178815 C267.92296111 253.59007683 255.93057571 253.61539723 243.93813385 253.64790294 C231.59579626 253.68108139 219.25350936 253.69899479 206.91112697 253.70218056 C199.99349491 253.70433573 193.07600885 253.71293742 186.15842056 253.73864174 C179.6428892 253.76279783 173.12754825 253.76610725 166.61197853 253.75588036 C164.23293879 253.75538779 161.85388564 253.76162491 159.47488594 253.7754364 C134.83146877 253.91039285 113.10427242 250.86841007 94.76171875 233.19140625 C88.95977819 227.05108793 83.79616798 220.8207137 79.171875 213.74609375 C78.38192642 212.55381416 78.38192642 212.55381416 77.57601929 211.33744812 C75.8840254 208.78174252 74.19991501 206.22094377 72.515625 203.66015625 C70.75682211 201.0005471 68.99582565 198.34240015 67.23458862 195.68440247 C66.07814166 193.93903749 64.92231317 192.19326257 63.76712036 190.44706726 C59.52838663 184.04317679 55.23742316 177.67882294 50.890625 171.34765625 C43.85801461 161.08859758 36.95998511 150.74229703 30.07568359 140.38330078 C26.5191779 135.03463317 22.95441136 129.69147427 19.390625 124.34765625 C18.10673416 122.42189945 16.82287818 120.49611941 15.5390625 118.5703125 C14.94706055 117.68359863 14.35505859 116.79688477 13.74511719 115.88330078 C12.58991451 114.14788761 11.4395335 112.40925537 10.29394531 110.66748047 C9.76124023 109.85939941 9.22853516 109.05131836 8.6796875 108.21875 C8.21256348 107.5064624 7.74543945 106.7941748 7.26416016 106.06030273 C6.0001945 104.1553394 6.0001945 104.1553394 4.015625 102.28515625 C3.07964328 100.64385817 2.14561092 99.00140898 1.22286987 97.35263062 C-1.0793367 93.4099731 -3.69381798 89.67110323 -6.26171875 85.8984375 C-6.86891251 85.00134567 -7.47610626 84.10425385 -8.10169983 83.17997742 C-10.03937872 80.31758281 -11.98030022 77.45740941 -13.921875 74.59765625 C-21.45665473 63.49422622 -28.9730146 52.38221914 -36.30078125 41.140625 C-36.84588852 40.30646561 -37.39099579 39.47230621 -37.95262146 38.61286926 C-38.45495804 37.83852036 -38.95729462 37.06417145 -39.47485352 36.26635742 C-39.9131398 35.59142746 -40.35142609 34.9164975 -40.80299377 34.22111511 C-44.6881831 27.85435852 -45.69900686 21.21073713 -44.62109375 13.78125 C-42.66789775 6.89114142 -38.54251 1.55403031 -32.515625 -2.2890625 C-21.50637922 -8.07554861 -9.77117119 -8.44398455 0 0 Z " fill="#0E788A" transform="translate(379.984375,508.71484375)"/>
<path d="M0 0 C0.66 0 1.32 0 2 0 C3.48828125 1.95703125 3.48828125 1.95703125 5.3125 4.8125 C9.60430047 11.42376616 14.04359096 17.92299788 18.51879883 24.41137695 C21.132981 28.21585803 23.64851868 32.02612793 26 36 C27.51007896 38.29975328 29.02933172 40.59079453 30.5625 42.875 C31.45966644 44.21612508 32.35680096 45.55727151 33.25390625 46.8984375 C33.71039551 47.5800293 34.16688477 48.26162109 34.63720703 48.96386719 C37.17328273 52.75298781 39.70145227 56.54739577 42.22631836 60.34399414 C44.42067751 63.64139086 46.62742452 66.92963199 48.8515625 70.20703125 C49.54765625 71.23763672 49.54765625 71.23763672 50.2578125 72.2890625 C51.15250862 73.61321276 52.05081089 74.93493533 52.953125 76.25390625 C56 80.7750756 56 80.7750756 56 83 C56.66 83 57.32 83 58 83 C59.77461476 85.74292897 61.39424548 88.53040658 62.99023438 91.37890625 C63.91670335 92.96664027 64.95223511 94.48955874 66 96 C66.99 96 67.98 96 69 96 C69.309375 97.485 69.309375 97.485 69.625 99 C70.76154455 103.07673587 72.99059595 105.79951396 75.6015625 109.06640625 C77.39712726 111.54910054 78.2606712 114.0426848 79 117 C79.66 117 80.32 117 81 117 C84 121.38461538 84 121.38461538 84 124 C85.485 124.495 85.485 124.495 87 125 C87.9921875 126.63671875 87.9921875 126.63671875 88.875 128.6875 C90.73506867 132.6774183 93.14039016 135.63995844 96 139 C100 145.14886731 100 145.14886731 100 148 C100.66 148 101.32 148 102 148 C102.4021875 148.78310547 102.4021875 148.78310547 102.8125 149.58203125 C105.13932564 153.95248336 107.64726016 157.97943429 110.625 161.9375 C114.91147658 167.67729626 118.58130603 173.73385211 122.23095703 179.89428711 C122.67681152 180.64073486 123.12266602 181.38718262 123.58203125 182.15625 C123.97624268 182.82462891 124.3704541 183.49300781 124.77661133 184.18164062 C126.02610424 186.03879951 127.37847867 187.4643064 129 189 C132.65203489 193.0298316 135.00582461 197.56522046 137.5390625 202.3359375 C138.72941382 204.50657815 139.96511611 206.53266717 141.375 208.5625 C143 211 143 211 143 213 C143.99 213.33 144.98 213.66 146 214 C149.66738671 219.48475639 152.71801325 226.3348586 153 233 C151.875 236.25 151.875 236.25 150 239 C149.46375 239.86625 148.9275 240.7325 148.375 241.625 C141.9879743 248.0120257 133.81959449 248.89469676 125.1328125 249.0859375 C113.22526325 249.01370318 105.0102621 245.65050447 96 238 C95.33613281 237.484375 94.67226563 236.96875 93.98828125 236.4375 C92.60655383 235.3553079 91.29231467 234.1875324 90 233 C90 232.34 90 231.68 90 231 C89.34 231 88.68 231 88 231 C87.67 230.01 87.34 229.02 87 228 C86.34 227.525625 85.68 227.05125 85 226.5625 C82.62791584 224.70930925 82.62138952 223.84063779 82 221 C81.0206121 219.97980427 80.02104551 218.97850195 79 218 C78.67 217.01 78.34 216.02 78 215 C77.154375 214.195625 76.30875 213.39125 75.4375 212.5625 C73 210 73 210 73 206 C72.34 206 71.68 206 71 206 C69.0546875 203.953125 69.0546875 203.953125 66.875 201.25 C65.78832031 199.92742187 65.78832031 199.92742187 64.6796875 198.578125 C63 196 63 196 63 192 C62.34 192 61.68 192 61 192 C60.7525 191.236875 60.505 190.47375 60.25 189.6875 C59.22856666 186.90254368 59.22856666 186.90254368 56.9375 185.5625 C55 184 55 184 54.25 180.8125 C54.1675 179.884375 54.085 178.95625 54 178 C53.34 178 52.68 178 52 178 C51.67 177.01 51.34 176.02 51 175 C50.34 174.67 49.68 174.34 49 174 C48.484375 172.9275 47.96875 171.855 47.4375 170.75 C44.9874549 165.6600539 41.74949425 161.17729204 38.50390625 156.57421875 C34.59142843 151.02266738 30.87230532 145.34087869 27.12060547 139.68017578 C26.10242011 138.15356323 25.06958458 136.63674719 24.03515625 135.12109375 C23.48730469 134.31800781 22.93945312 133.51492188 22.375 132.6875 C21.90835938 132.01074219 21.44171875 131.33398438 20.9609375 130.63671875 C20 129 20 129 20 127 C19.34 127 18.68 127 18 127 C17.75145264 126.51998535 17.50290527 126.0399707 17.24682617 125.54541016 C13.11171472 117.82358707 8.19815437 110.63135351 3.3125 103.375 C2.45605133 102.09787674 1.59992986 100.82053399 0.74414062 99.54296875 C-0.96981862 96.98504962 -2.6854919 94.42829287 -4.40234375 91.87231445 C-8.26199468 86.12301997 -12.09914172 80.3587157 -15.93753052 74.59521484 C-17.34568294 72.4809841 -18.7548207 70.36741097 -20.1640625 68.25390625 C-22.44270833 64.8359375 -24.72135417 61.41796875 -27 58 C-26.67 57.34 -26.34 56.68 -26 56 C-18.8180272 65.47774633 -12.37127652 75.43218649 -5.86080933 85.37567139 C-2.61176811 90.33684799 0.64665811 95.29184474 3.90625 100.24609375 C4.85263084 101.68459686 4.85263084 101.68459686 5.81813049 103.15216064 C10.72290177 110.59860122 15.7012099 117.98849603 20.75463867 125.33496094 C25.69951275 132.53035472 30.5422219 139.79165988 35.375 147.0625 C44.17261024 160.29593964 53.05197657 173.47289829 61.97070312 186.625 C66.6124574 193.47444407 71.24230653 200.32818817 75.7578125 207.26171875 C88.7081252 227.84166177 88.7081252 227.84166177 108 242 C108.66902344 242.33644531 109.33804688 242.67289063 110.02734375 243.01953125 C118.77659525 246.69723966 130.96823619 246.54052507 139.8125 243.3125 C143.59115789 241.44570139 146.16277636 239.92497778 148 236 C150.24302085 224.87758256 143.73963648 217.10059678 137.8996582 208.30786133 C134.23275601 202.83146585 130.52442218 197.38343824 126.8125 191.9375 C119.05604166 180.55027428 111.37761088 169.14276232 104.06825256 157.46212769 C100.26779771 151.39373725 96.32539046 145.45080059 92.25 139.5625 C90.96962592 137.69820928 89.68967354 135.83362886 88.41015625 133.96875 C87.81734863 133.10636719 87.22454102 132.24398437 86.61376953 131.35546875 C83.35846161 126.60399964 80.1809061 121.80149405 77 117 C75.50063106 114.74957605 74.00069934 112.49953622 72.5 110.25 C69.60407418 105.90889582 66.71109278 101.5658803 63.82421875 97.21875 C55.52241986 84.72916502 47.15326688 72.28626693 38.76147461 59.85702515 C33.17007166 51.57421229 27.58426585 43.28762579 22 35 C21.13281342 33.71337463 21.13281342 33.71337463 20.24810791 32.40075684 C17.03959588 27.63922194 13.83599398 22.87446077 10.64044189 18.10421753 C9.6767004 16.66702614 8.71134304 15.2309169 7.74432373 13.79592896 C6.42284043 11.83428443 5.10713426 9.86889528 3.79296875 7.90234375 C3.40385818 7.3274118 3.01474762 6.75247986 2.61384583 6.16012573 C0 2.22852097 0 2.22852097 0 0 Z " fill="#0D7E8F" transform="translate(425,480)"/>
<path d="M0 0 C0.33 0 0.66 0 1 0 C1.13230623 17.90222992 1.26275164 35.80447248 1.39115143 53.70673084 C1.45084898 62.02446427 1.51109622 70.34219296 1.57275391 78.65991211 C1.63817125 87.49087143 1.70198774 96.32184131 1.76445007 105.15282202 C1.7812439 107.51867252 1.79826762 109.88452129 1.81530762 112.25037003 C1.92189949 127.15051924 2.022021 142.05004426 1.99609375 156.95068359 C1.99444969 157.97972526 1.99280563 159.00876692 1.99111176 160.06899166 C1.98210212 164.64120301 1.96605393 169.2132231 1.93762207 173.78535461 C1.93168767 175.33045438 1.92578522 176.87555426 1.91992188 178.4206543 C1.91150269 179.70804001 1.9030835 180.99542572 1.89440918 182.32182312 C2.06483711 188.25855205 2.34650718 193.71858335 5.4375 198.9375 C5.86933594 199.68902344 6.30117187 200.44054687 6.74609375 201.21484375 C7.8890062 203.14236297 7.8890062 203.14236297 10 204 C10 204.66 10 205.32 10 206 C10.99 206 11.98 206 13 206 C13 206.66 13 207.32 13 208 C17.00216452 209.03281665 20.71967799 209.05110078 24.81640625 208.9375 C27.02222429 209.00063612 28.88675358 209.38663143 31 210 C31 209.34 31 208.68 31 208 C32.03125 207.773125 33.0625 207.54625 34.125 207.3125 C38.1506463 206.12273409 41.38172049 204.33235574 44 201 C45.30918991 198.06662712 46.22648029 195.1144346 47 192 C47.33 192 47.66 192 48 192 C48.33 149.76 48.66 107.52 49 64 C49.66 64 50.32 64 51 64 C51.11702666 80.64674479 51.20508237 97.29335525 51.25906086 113.94041252 C51.28479507 121.67070172 51.31985328 129.40073469 51.37719727 137.13085938 C51.42717968 143.87186269 51.45932576 150.61268035 51.47044247 157.35386384 C51.47693638 160.92028496 51.49209687 164.48617516 51.52865028 168.05242538 C51.56921595 172.04283513 51.56994 176.0323337 51.56762695 180.02294922 C51.58560333 181.19324173 51.60357971 182.36353424 51.62210083 183.56929016 C51.57051831 191.81829831 49.98062765 198.71591503 44.22755909 204.90756035 C37.92848291 210.6954669 31.4980267 212.97356757 23 213 C16.39866117 212.43662043 10.95624206 209.28469018 6 205 C-0.35757589 197.39251235 -1.29995191 189.3015287 -1.24291992 179.73120117 C-1.24479561 178.71628223 -1.2466713 177.7013633 -1.24860382 176.65568924 C-1.25225869 173.2847059 -1.24150536 169.91393357 -1.23046875 166.54296875 C-1.22961137 164.15129105 -1.22953097 161.75961295 -1.23017883 159.36793518 C-1.2290271 152.96383249 -1.21469495 146.55982301 -1.19723511 140.15574646 C-1.18752303 136.19688764 -1.18167578 132.23804284 -1.17724609 128.2791748 C-1.12922325 85.51412012 -0.80012265 42.75767943 0 0 Z " fill="#0B7688" transform="translate(223,544)"/>
<path d="M0 0 C0.99 0.495 0.99 0.495 2 1 C-4.82751867 6.120639 -11.58330504 7.31070873 -20.02331543 7.24050903 C-21.17287964 7.24307231 -21.17287964 7.24307231 -22.34566736 7.24568737 C-24.89134999 7.2489588 -27.43676389 7.23801765 -29.98242188 7.22705078 C-31.81609084 7.22648616 -33.64976025 7.22680422 -35.48342896 7.22793579 C-40.44564678 7.22850831 -45.4077674 7.21677027 -50.36996269 7.20278788 C-55.56161884 7.19026376 -60.75327736 7.18910869 -65.94494629 7.18673706 C-75.76909062 7.18052724 -85.59319031 7.16412314 -95.41731501 7.14403808 C-106.60470584 7.1216636 -117.79209884 7.11068175 -128.97950649 7.10064721 C-151.98636239 7.07975648 -174.99317869 7.04459017 -198 7 C-197.93849655 16.57173142 -197.86118346 26.14317212 -197.76428509 35.71461105 C-197.71976381 40.16014505 -197.68046875 44.60559124 -197.65356445 49.05126953 C-197.62734785 53.35030539 -197.58681935 57.64899997 -197.53681374 61.94782257 C-197.52026806 63.57901987 -197.50867789 65.21027603 -197.50238609 66.8415451 C-197.45154731 78.82279263 -196.57103599 90.00073282 -190.8125 100.75 C-190.28269531 101.75546875 -189.75289062 102.7609375 -189.20703125 103.796875 C-188.80871094 104.52390625 -188.41039062 105.2509375 -188 106 C-188.99 106.495 -188.99 106.495 -190 107 C-193.04235736 102.75756564 -194.9812517 98.85918272 -196.6875 93.875 C-197.10386719 92.67617188 -197.52023437 91.47734375 -197.94921875 90.2421875 C-199.60692653 85.12732705 -200.14060588 80.77111894 -200.11352539 75.38574219 C-200.11367142 74.62437958 -200.11381744 73.86301697 -200.1139679 73.07858276 C-200.11327255 70.56798429 -200.10549787 68.05746048 -200.09765625 65.546875 C-200.09579073 63.80381308 -200.09436746 62.06075063 -200.09336853 60.31768799 C-200.08955394 55.73427884 -200.07973267 51.15090149 -200.06866455 46.56750488 C-200.0584277 41.88875763 -200.05386604 37.21000523 -200.04882812 32.53125 C-200.03810946 23.35415272 -200.02104572 14.177079 -200 5 C-199.02393327 4.99853344 -198.04786654 4.99706688 -197.04222202 4.99555588 C-173.28019108 4.95894284 -149.51830089 4.89946951 -125.75638676 4.81609726 C-114.26524182 4.77630677 -102.77416536 4.74391428 -91.28295898 4.72900391 C-81.26592443 4.7159875 -71.24904057 4.68902294 -61.23209089 4.64538693 C-55.92934673 4.62277206 -50.62678844 4.60708935 -45.32399178 4.60811615 C-40.3293704 4.60886273 -35.33515989 4.59091227 -30.34064484 4.55883217 C-28.51096661 4.55033719 -26.68124229 4.5485805 -24.85155296 4.55419731 C-15.71145994 4.57851099 -8.21450968 4.51195245 0 0 Z " fill="#0AAEB4" transform="translate(745,504)"/>
<path d="M0 0 C3.86367895 3.60519338 6.71785328 7.37878737 9.5 11.875 C14.58150418 19.89866856 19.85332378 27.78541668 25.18017578 35.64727783 C26.0867816 36.98537005 26.99257199 38.32401519 27.89746094 39.66326904 C32.67239739 46.72915433 37.49383379 53.7590155 42.43359375 60.7109375 C42.84090225 61.28659958 43.24821075 61.86226166 43.66786194 62.45536804 C54.28961103 77.30985568 69.85973584 86.11726916 87.61170959 89.61000061 C91.58045993 90.25808353 95.54054083 90.44857084 99.5546875 90.60546875 C100.45583786 90.64433701 101.35698822 90.68320526 102.28544617 90.72325134 C113.12571234 91.14693856 123.96604775 91.10924815 134.8125 91.0625 C136.88476452 91.05746511 138.95703025 91.05290578 141.02929688 91.04882812 C146.01956218 91.0380027 151.00976694 91.02085279 156 91 C156 91.66 156 92.32 156 93 C161.28 93 166.56 93 172 93 C168.44248086 95.37167943 166.93401555 95.24817318 162.71533203 95.24291992 C161.41612823 95.24599655 160.11692444 95.24907318 158.77835083 95.25224304 C157.3548363 95.24533763 155.93132349 95.2380701 154.5078125 95.23046875 C153.04108725 95.22927535 151.57436122 95.22882413 150.1076355 95.2290802 C147.02581016 95.2275145 143.94410081 95.21922726 140.86230469 95.20581055 C136.94797644 95.18897017 133.0337774 95.18499208 129.11941719 95.18575573 C126.08386034 95.18548091 123.04833072 95.17994792 120.01278305 95.17275429 C118.57216472 95.16960983 117.13154335 95.1676103 115.69092178 95.16686058 C107.65339176 95.15811114 99.6882457 94.93162872 91.67819214 94.21284485 C89.45799811 94.03639864 87.22719438 94 85 94 C83.31562256 93.37943989 81.64991582 92.70710678 80 92 C78.00379834 91.32204472 76.00461299 90.65266469 74 90 C74 89.34 74 88.68 74 88 C72.9275 87.87625 71.855 87.7525 70.75 87.625 C67.6168129 87.10280215 65.61350274 86.70882871 63 85 C62.67 84.34 62.34 83.68 62 83 C61.01 82.505 60.02 82.01 59 81.5 C56 80 56 80 55 78 C54.278125 77.608125 53.55625 77.21625 52.8125 76.8125 C48.61825825 74.10954421 45.10441362 70.41399498 43.01171875 65.83984375 C42.0780306 63.64883511 42.0780306 63.64883511 39 63 C38.27908956 61.26326122 37.56222861 59.52442722 36.88671875 57.76953125 C35.55832557 55.11859684 33.31933062 53.78410048 31 52 C29.8125 49.5 29.8125 49.5 29 47 C27.7100286 43.83982742 27.7100286 43.83982742 25 42 C25 41.01 25 40.02 25 39 C24.34 39 23.68 39 23 39 C22.68546875 38.33613281 22.3709375 37.67226563 22.046875 36.98828125 C19.72974387 32.20745346 17.44383306 28.08157992 14 24 C14 23.34 14 22.68 14 22 C13.34 22 12.68 22 12 22 C11.319375 20.5459375 11.319375 20.5459375 10.625 19.0625 C9.34213779 15.92920418 9.34213779 15.92920418 7 15 C6.03515625 13.328125 6.03515625 13.328125 5.0625 11.25 C3.87807569 8.77468628 2.68084455 6.47567318 1.25 4.125 C0 2 0 2 0 0 Z " fill="#0E8597" transform="translate(556,610)"/>
<path d="M0 0 C1.86921321 -0.00271607 3.73842535 -0.00628044 5.6076355 -0.01062012 C10.64240128 -0.01966995 15.6770843 -0.01623154 20.71185136 -0.00986195 C25.99936523 -0.0047671 31.28687243 -0.00950268 36.5743866 -0.01263428 C45.44494895 -0.01626222 54.31547789 -0.01150399 63.18603516 -0.00195312 C73.42675057 0.00894596 83.66738643 0.00539057 93.90809995 -0.00560594 C102.7245927 -0.01469222 111.54106156 -0.01595803 120.35755748 -0.0107286 C125.61311344 -0.00761844 130.86863203 -0.00717363 136.12418556 -0.01380157 C141.06140356 -0.01959453 145.99851918 -0.01554251 150.93572617 -0.00401306 C152.7428578 -0.00137762 154.5499981 -0.00211241 156.35712624 -0.00653839 C170.1344281 -0.03716162 181.01456513 0.32051699 191.83276367 9.69628906 C194.13962618 12.39861372 195.58826081 15.01794047 197.02026367 18.25878906 C196.36026367 18.58878906 195.70026367 18.91878906 195.02026367 19.25878906 C194.69026367 17.93878906 194.36026367 16.61878906 194.02026367 15.25878906 C193.36026367 15.25878906 192.70026367 15.25878906 192.02026367 15.25878906 C191.69026367 14.26878906 191.36026367 13.27878906 191.02026367 12.25878906 C186.49942053 7.73794592 182.13992859 5.90553526 176.02026367 4.25878906 C175.20797397 3.99774824 175.20797397 3.99774824 174.37927437 3.73143387 C170.97190717 3.04874328 167.58808709 3.11433884 164.12765503 3.11834717 C163.32683317 3.11537605 162.52601132 3.11240492 161.70092213 3.10934377 C159.01422724 3.10066389 156.32757695 3.0991491 153.64086914 3.09765625 C151.71564133 3.09302749 149.79041443 3.08800275 147.8651886 3.08261108 C142.63145021 3.0694887 137.39772465 3.06304217 132.16397238 3.05860043 C128.89274136 3.0556688 125.62151384 3.05156377 122.35028458 3.04709625 C112.11152153 3.03342034 101.87276649 3.02375474 91.63399494 3.01989436 C79.82251872 3.01541641 68.01115839 2.99788107 56.1997174 2.96889377 C47.06579568 2.94725743 37.93190651 2.937189 28.79795945 2.93585324 C23.34489431 2.93480641 17.8919381 2.92892467 12.43889999 2.91103363 C7.30562602 2.89451976 2.17254245 2.89241358 -2.96074867 2.90117264 C-4.84002379 2.9019413 -6.71930928 2.89762298 -8.59855843 2.88771439 C-17.91841034 2.84147493 -26.16291858 2.8772675 -34.97973633 6.25878906 C-36.97216882 6.63471972 -38.97160373 6.97858451 -40.97973633 7.25878906 C-42.64778309 7.58514604 -44.31497947 7.916045 -45.97973633 8.25878906 C-46.30973633 7.59878906 -46.63973633 6.93878906 -46.97973633 6.25878906 C-44.94207303 5.620858 -42.89925611 4.99939172 -40.85473633 4.38378906 C-39.7177832 4.03574219 -38.58083008 3.68769531 -37.40942383 3.32910156 C-25.0430475 0.09857147 -12.67686478 -0.03123918 0 0 Z " fill="#08E6DE" transform="translate(601.979736328125,263.7412109375)"/>
<path d="M0 0 C0.66 0 1.32 0 2 0 C3.48828125 1.95703125 3.48828125 1.95703125 5.3125 4.8125 C9.60430047 11.42376616 14.04359096 17.92299788 18.51879883 24.41137695 C21.132981 28.21585803 23.64851868 32.02612793 26 36 C27.51007896 38.29975328 29.02933172 40.59079453 30.5625 42.875 C31.45966644 44.21612508 32.35680096 45.55727151 33.25390625 46.8984375 C33.71039551 47.5800293 34.16688477 48.26162109 34.63720703 48.96386719 C37.17328273 52.75298781 39.70145227 56.54739577 42.22631836 60.34399414 C44.42067751 63.64139086 46.62742452 66.92963199 48.8515625 70.20703125 C49.315625 70.89410156 49.7796875 71.58117187 50.2578125 72.2890625 C51.15250862 73.61321276 52.05081089 74.93493533 52.953125 76.25390625 C56 80.7750756 56 80.7750756 56 83 C56.66 83 57.32 83 58 83 C59.77461476 85.74292897 61.39424548 88.53040658 62.99023438 91.37890625 C63.91670335 92.96664027 64.95223511 94.48955874 66 96 C66.99 96 67.98 96 69 96 C69.309375 97.485 69.309375 97.485 69.625 99 C70.76154455 103.07673587 72.99059595 105.79951396 75.6015625 109.06640625 C77.39712726 111.54910054 78.2606712 114.0426848 79 117 C79.66 117 80.32 117 81 117 C84 121.38461538 84 121.38461538 84 124 C85.485 124.495 85.485 124.495 87 125 C87.9921875 126.63671875 87.9921875 126.63671875 88.875 128.6875 C90.73506867 132.6774183 93.14039016 135.63995844 96 139 C100 145.14886731 100 145.14886731 100 148 C100.66 148 101.32 148 102 148 C102.4021875 148.78310547 102.4021875 148.78310547 102.8125 149.58203125 C105.13932564 153.95248336 107.64726016 157.97943429 110.625 161.9375 C114.91147658 167.67729626 118.58130603 173.73385211 122.23095703 179.89428711 C122.67681152 180.64073486 123.12266602 181.38718262 123.58203125 182.15625 C123.97624268 182.82462891 124.3704541 183.49300781 124.77661133 184.18164062 C126.02685303 186.03991247 127.38008074 187.46063513 129 189 C132.12517103 192.50397964 133.73688232 195.47382831 135 200 C134.01 200 133.02 200 132 200 C130.19028574 197.6534586 128.59627436 195.34178413 127.01171875 192.84765625 C126.52044495 192.0932576 126.02917114 191.33885895 125.52301025 190.56159973 C123.90171193 188.06789832 122.2948769 185.56519262 120.6875 183.0625 C119.567705 181.33596113 118.44668041 179.61021916 117.32446289 177.88525391 C115.5979478 175.23129571 113.87212174 172.57692254 112.15000916 169.92010498 C106.48804752 161.1876744 100.72367879 152.52542377 94.9375 143.875 C94.04439481 142.53792205 93.15140652 141.20076601 92.25854492 139.86352539 C90.60705127 137.3903822 88.95495014 134.91764698 87.30224609 132.4453125 C83.86327697 127.30013355 80.43182622 122.14994518 77 117 C76.1979514 115.79685185 75.39587422 114.59372274 74.59375 113.390625 C73.9028125 112.35421875 73.211875 111.3178125 72.5 110.25 C72.08661377 109.6302832 71.67322754 109.01056641 71.24731445 108.37207031 C68.76934456 104.6566807 66.29481918 100.93904464 63.82421875 97.21875 C55.52241986 84.72916502 47.15326688 72.28626693 38.76147461 59.85702515 C33.17007166 51.57421229 27.58426585 43.28762579 22 35 C21.13281342 33.71337463 21.13281342 33.71337463 20.24810791 32.40075684 C17.03959588 27.63922194 13.83599398 22.87446077 10.64044189 18.10421753 C9.6767004 16.66702614 8.71134304 15.2309169 7.74432373 13.79592896 C6.42284043 11.83428443 5.10713426 9.86889528 3.79296875 7.90234375 C3.40385818 7.3274118 3.01474762 6.75247986 2.61384583 6.16012573 C0 2.22852097 0 2.22852097 0 0 Z " fill="#0C8695" transform="translate(425,480)"/>
<path d="M0 0 C2.6955827 2.63431945 4.91861187 5.13963655 7.015625 8.28515625 C6.685625 9.27515625 6.355625 10.26515625 6.015625 11.28515625 C5.396875 10.39763672 5.396875 10.39763672 4.765625 9.4921875 C0.24133478 3.30158504 -3.93444856 -1.60002081 -11.65625 -3.3046875 C-20.88827763 -4.43956383 -27.41481043 -2.7877256 -35 2.57421875 C-39.18681918 6.18411403 -41.44558671 10.7625763 -41.984375 16.28515625 C-42.62211393 26.01067499 -39.11980938 32.65596234 -33.546875 40.34765625 C-30.78818931 44.20832705 -28.07373121 48.01736319 -25.7578125 52.1640625 C-24.19230838 55.25979239 -24.19230838 55.25979239 -22.046875 57.16015625 C-19.51088776 59.77299159 -18.1126234 62.58443316 -16.40625 65.78125 C-13.91743405 70.16402754 -10.9169046 74.19212322 -7.984375 78.28515625 C-3.984375 83.95767087 -3.984375 83.95767087 -3.984375 86.28515625 C-3.324375 86.28515625 -2.664375 86.28515625 -1.984375 86.28515625 C1.015625 90.66977163 1.015625 90.66977163 1.015625 93.28515625 C1.675625 93.28515625 2.335625 93.28515625 3.015625 93.28515625 C5.05731985 96.19064507 6.015625 97.68657671 6.015625 101.28515625 C7.005625 101.61515625 7.995625 101.94515625 9.015625 102.28515625 C12.015625 107.50737847 12.015625 107.50737847 12.015625 110.28515625 C13.335625 110.94515625 14.655625 111.60515625 16.015625 112.28515625 C16.015625 113.27515625 16.015625 114.26515625 16.015625 115.28515625 C16.675625 115.28515625 17.335625 115.28515625 18.015625 115.28515625 C18.675625 116.93515625 19.335625 118.58515625 20.015625 120.28515625 C17.62384931 119.90468968 16.33989688 119.6380751 14.67529297 117.82641602 C14.29002441 117.21596436 13.90475586 116.6055127 13.5078125 115.9765625 C13.07855469 115.31205078 12.64929688 114.64753906 12.20703125 113.96289062 C11.77261719 113.26486328 11.33820313 112.56683594 10.890625 111.84765625 C10.01488463 110.4727694 9.1373547 109.09902035 8.2578125 107.7265625 C7.8747998 107.11498291 7.49178711 106.50340332 7.09716797 105.87329102 C5.97672238 104.1219664 5.97672238 104.1219664 4.015625 102.28515625 C3.07964328 100.64385817 2.14561092 99.00140898 1.22286987 97.35263062 C-1.0793367 93.4099731 -3.69381798 89.67110323 -6.26171875 85.8984375 C-6.86891251 85.00134567 -7.47610626 84.10425385 -8.10169983 83.17997742 C-10.03937872 80.31758281 -11.98030022 77.45740941 -13.921875 74.59765625 C-21.45665473 63.49422622 -28.9730146 52.38221914 -36.30078125 41.140625 C-36.84588852 40.30646561 -37.39099579 39.47230621 -37.95262146 38.61286926 C-38.45495804 37.83852036 -38.95729462 37.06417145 -39.47485352 36.26635742 C-39.9131398 35.59142746 -40.35142609 34.9164975 -40.80299377 34.22111511 C-44.6881831 27.85435852 -45.69900686 21.21073713 -44.62109375 13.78125 C-42.66789775 6.89114142 -38.54251 1.55403031 -32.515625 -2.2890625 C-21.50637922 -8.07554861 -9.77117119 -8.44398455 0 0 Z " fill="#0B98A3" transform="translate(379.984375,508.71484375)"/>
<path d="M0 0 C0.33 0 0.66 0 1 0 C1.9209082 5.4601934 2.13731108 10.70887633 2.11352539 16.23999023 C2.11364593 17.15275506 2.11376646 18.06551989 2.11389065 19.00594425 C2.1131484 21.94018614 2.1055517 24.87436332 2.09765625 27.80859375 C2.0961847 29.62829559 2.0951653 31.44799785 2.09460449 33.2677002 C2.08937633 39.99097328 2.07541506 46.71423729 2.0625 53.4375 C2.041875 68.473125 2.02125 83.50875 2 99 C62.39 99 122.78 99 185 99 C185 99.33 185 99.66 185 100 C160.89630136 100.15374253 136.79257358 100.30177997 112.68879795 100.4429636 C101.49783562 100.50864676 90.30689059 100.57622025 79.1159668 100.64819336 C69.36572648 100.71089614 59.6154724 100.7701037 49.8651852 100.82505554 C44.69909497 100.85429484 39.53302906 100.88532401 34.36697578 100.92053413 C29.51045996 100.95357945 24.65393977 100.98197256 19.79737473 101.00670624 C18.00945802 101.0166486 16.22155007 101.02833063 14.43365669 101.04183006 C12.00362664 101.05992483 9.57364335 101.07191527 7.14356995 101.08229065 C6.42665735 101.08909444 5.70974476 101.09589823 4.97110754 101.10290819 C3.31372109 101.1067345 1.65633781 101.05907227 0 101 C-1 100 -1 100 -1.11352539 96.30639648 C-1.11336624 94.66128708 -1.10766988 93.01617269 -1.09765625 91.37109375 C-1.0962413 90.50686295 -1.09482635 89.64263214 -1.09336853 88.75221252 C-1.08775239 85.98060708 -1.07519719 83.2090812 -1.0625 80.4375 C-1.05748708 78.5631522 -1.05292381 76.68880315 -1.04882812 74.81445312 C-1.03777772 70.20960456 -1.0205023 65.60481579 -1 61 C-0.67 61 -0.34 61 0 61 C0 48.79 0 36.58 0 24 C-0.33 24 -0.66 24 -1 24 C-1.12867289 15.93649887 -0.79681084 8.02502344 0 0 Z " fill="#0CE3E0" transform="translate(545,357)"/>
<path d="M0 0 C1.85444246 0.07973904 3.71130096 0.11377709 5.56744385 0.10679626 C6.64981323 0.10528061 7.73218262 0.10376495 8.84735107 0.10220337 C10.60562225 0.09209732 10.60562225 0.09209732 12.39941406 0.08178711 C14.26859497 0.07718727 14.26859497 0.07718727 16.17553711 0.07249451 C18.87649926 0.06534965 21.57738872 0.05642097 24.27832794 0.04459953 C28.54717785 0.02626165 32.81601976 0.0166968 37.0848999 0.00868225 C49.22037288 -0.01543884 61.35579622 -0.05145344 73.49121094 -0.09594727 C80.20067649 -0.12046975 86.91012298 -0.13784524 93.61962676 -0.14750665 C97.86581999 -0.15405783 102.1118557 -0.16963188 106.35799456 -0.19182408 C109.61137193 -0.20626993 112.86475925 -0.20773098 116.11816406 -0.21118164 C117.88858063 -0.22432404 117.88858063 -0.22432404 119.69476318 -0.23773193 C120.76585327 -0.23642776 121.83694336 -0.2351236 122.94049072 -0.23377991 C124.34191 -0.23849351 124.34191 -0.23849351 125.77164078 -0.24330235 C128 0 128 0 130 2 C127.03491824 3.48254088 124.02445695 3.13358721 120.7741394 3.12025452 C119.64451568 3.12153615 119.64451568 3.12153615 118.49207127 3.12284368 C115.95546512 3.12449764 113.41892433 3.11897848 110.88232422 3.11352539 C109.0692444 3.11324347 107.25616447 3.11340134 105.44308472 3.1139679 C100.50946626 3.1142557 95.57587195 3.10836173 90.64225912 3.10139394 C85.49060277 3.09515755 80.33894592 3.09455637 75.18728638 3.09336853 C65.42670704 3.09025606 55.66613885 3.08204379 45.90556443 3.07201904 C34.79569466 3.0608553 23.68582436 3.05534679 12.57595038 3.05032361 C-10.28270594 3.03986112 -33.14135234 3.02226329 -56 3 C-56 2.34 -56 1.68 -56 1 C-45.31654775 -0.12457392 -34.68234729 -0.07130529 -23.95214844 0.03710938 C-16.71564108 0.11120179 -16.71564108 0.11120179 -9.5234375 -0.5625 C-5.97043786 -1.00367069 -3.50023923 -0.59761564 0 0 Z " fill="#07D3D0" transform="translate(640,316)"/>
<path d="M0 0 C0.66 0 1.32 0 2 0 C2.11702666 16.64674479 2.20508237 33.29335525 2.25906086 49.94041252 C2.28479507 57.67070172 2.31985328 65.40073469 2.37719727 73.13085938 C2.42717968 79.87186269 2.45932576 86.61268035 2.47044247 93.35386384 C2.47693638 96.92028496 2.49209687 100.48617516 2.52865028 104.05242538 C2.56921595 108.04283513 2.56994 112.0323337 2.56762695 116.02294922 C2.59459152 117.77838799 2.59459152 117.77838799 2.62210083 119.56929016 C2.57704223 126.7750018 1.67399257 133.23532499 -3 139 C-5.67356396 140.2696209 -5.67356396 140.2696209 -8 141 C-7.67 140.01 -7.34 139.02 -7 138 C-6.34 137.67 -5.68 137.34 -5 137 C-4.09274566 134.88672575 -4.09274566 134.88672575 -3.375 132.4375 C-3.11460937 131.61121094 -2.85421875 130.78492188 -2.5859375 129.93359375 C-2.29589844 128.97646484 -2.29589844 128.97646484 -2 128 C-1.67 128 -1.34 128 -1 128 C-0.67 85.76 -0.34 43.52 0 0 Z " fill="#0C8E9A" transform="translate(272,608)"/>
<path d="M0 0 C3 1 3 1 4.6875 4.0625 C5.120625 5.031875 5.55375 6.00125 6 7 C6.66 7 7.32 7 8 7 C8.28875 8.134375 8.5775 9.26875 8.875 10.4375 C9.24625 11.613125 9.6175 12.78875 10 14 C10.66 14.33 11.32 14.66 12 15 C13.26047107 16.77663682 14.46123378 18.59606744 15.625 20.4375 C16.25664062 21.42621094 16.88828125 22.41492188 17.5390625 23.43359375 C19 26 19 26 19 28 C19.61875 28.226875 20.2375 28.45375 20.875 28.6875 C23.66733034 30.41217462 23.82759947 31.96555156 25 35 C26.66247014 37.00348966 28.32932867 39.00334402 30 41 C30.45761719 41.92039062 30.91523438 42.84078125 31.38671875 43.7890625 C33.12359176 47.2459865 35.14985398 50.27445113 37.375 53.4375 C37.97380981 54.29335693 37.97380981 54.29335693 38.5847168 55.16650391 C40.63363721 58.089247 42.71197722 60.98923506 44.8125 63.875 C51 72.71428571 51 72.71428571 51 76 C51.66 76 52.32 76 53 76 C53.53625 76.99 54.0725 77.98 54.625 79 C56.70349348 82.67848487 59.17617644 85.92101044 61.828125 89.203125 C63 91 63 91 63 94 C63.99 94.33 64.98 94.66 66 95 C67 96.75 67 96.75 68 99 C68.98879205 100.67334039 69.98648336 102.34151823 71 104 C70.34 104.66 69.68 105.32 69 106 C68.44352783 105.16267334 67.88705566 104.32534668 67.3137207 103.46264648 C56.97713374 87.91365929 46.61365622 72.38442563 36.125 56.9375 C28.5231299 45.74132879 20.9712299 34.51449272 13.48828125 23.23828125 C11.27746017 19.90842502 9.04821115 16.59289307 6.79296875 13.29296875 C6.31496826 12.58978516 5.83696777 11.88660156 5.34448242 11.16210938 C4.48185505 9.89518905 3.61397159 8.63182245 2.73950195 7.37304688 C0 3.33550709 0 3.33550709 0 0 Z " fill="#0E7B8B" transform="translate(398,628)"/>
<path d="M0 0 C0.66 0.33 1.32 0.66 2 1 C1.91620009 18.95850107 1.82110404 36.91690482 1.71247292 54.87527275 C1.66230109 63.21321646 1.61585881 71.55115011 1.578125 79.88916016 C1.5452358 87.15458582 1.50542181 94.41993445 1.45720994 101.6852752 C1.43191423 105.53401441 1.41014217 109.38270232 1.39665604 113.23150253 C1.38386336 116.85122089 1.36183966 120.47076357 1.33261681 124.09038544 C1.31916837 126.0580559 1.31561413 128.02578612 1.31230164 129.99349976 C1.30113815 131.15740234 1.28997467 132.32130493 1.2784729 133.52047729 C1.27294214 134.53629316 1.26741138 135.55210903 1.26171303 136.5987072 C1 139 1 139 -1 141 C-1.02336883 123.50181246 -1.04099876 106.0036298 -1.05181217 88.50543022 C-1.05696665 80.38056796 -1.06399322 72.25571541 -1.07543945 64.13085938 C-1.08541217 57.04856616 -1.0918596 49.96627996 -1.09408849 42.88397992 C-1.0953912 39.13458774 -1.09844924 35.38521566 -1.10573006 31.63582993 C-1.11379531 27.4484544 -1.11398947 23.26111374 -1.11352539 19.07373047 C-1.11712067 17.83295242 -1.12071594 16.59217438 -1.12442017 15.313797 C-1.1230455 14.16963821 -1.12167084 13.02547943 -1.12025452 11.84664917 C-1.12117631 10.85664351 -1.1220981 9.86663784 -1.12304783 8.846632 C-0.99265847 5.83015852 -0.55434238 2.96550047 0 0 Z " fill="#07CACA" transform="translate(273,339)"/>
<path d="M0 0 C4.5956758 4.19298382 7.79665942 8.92158859 11.1640625 14.12890625 C11.74913071 15.02253372 12.33419891 15.91616119 12.93699646 16.83686829 C14.18865785 18.74967207 15.43770249 20.66419028 16.68435669 22.58026123 C19.95555552 27.60720045 23.24632909 32.62130247 26.53515625 37.63671875 C27.18433517 38.62774597 27.8335141 39.61877319 28.50236511 40.63983154 C33.61485554 48.43649219 38.80443213 56.17597129 44.0625 63.875 C51.47039589 74.7255796 58.78449835 85.634372 66.04248047 96.58569336 C69.52448883 101.83342997 73.01365473 107.06882838 76.66796875 112.19921875 C77.19003906 112.93495117 77.71210938 113.67068359 78.25 114.42871094 C79.16134236 115.70223759 80.08332778 116.96826907 81.01953125 118.22363281 C83.78773561 122.08949437 84.64792337 125.27978626 85 130 C82 128 82 128 81.3125 124.875 C81.209375 123.92625 81.10625 122.9775 81 122 C80.34 122 79.68 122 79 122 C78.67 121.01 78.34 120.02 78 119 C77.34 118.67 76.68 118.34 76 118 C75.484375 116.9275 74.96875 115.855 74.4375 114.75 C71.9874549 109.6600539 68.74949425 105.17729204 65.50390625 100.57421875 C61.59142843 95.02266738 57.87230532 89.34087869 54.12060547 83.68017578 C53.10242011 82.15356323 52.06958458 80.63674719 51.03515625 79.12109375 C50.48730469 78.31800781 49.93945312 77.51492188 49.375 76.6875 C48.90835938 76.01074219 48.44171875 75.33398438 47.9609375 74.63671875 C47 73 47 73 47 71 C46.34 71 45.68 71 45 71 C44.75145264 70.51998535 44.50290527 70.0399707 44.24682617 69.54541016 C40.11171472 61.82358707 35.19815437 54.63135351 30.3125 47.375 C29.45605133 46.09787674 28.59992986 44.82053399 27.74414062 43.54296875 C26.03027517 40.98514885 24.31456451 38.42858101 22.59765625 35.87280273 C19.95804182 31.94098613 17.33164203 28.00043579 14.70703125 24.05859375 C12.09660634 20.13807194 9.48110866 16.22142267 6.8359375 12.32421875 C6.20751953 11.39512695 6.20751953 11.39512695 5.56640625 10.44726562 C4.73628072 9.22112939 3.90267672 7.99734404 3.06640625 6.77539062 C0 2.22445437 0 2.22445437 0 0 Z " fill="#0A9DA7" transform="translate(398,536)"/>
<path d="M0 0 C0 0.66 0 1.32 0 2 C1.15886719 2.0928125 2.31773437 2.185625 3.51171875 2.28125 C8.09703628 2.86210395 11.73422932 4.38731877 15.8125 6.5 C16.84310547 7.02424561 16.84310547 7.02424561 17.89453125 7.55908203 C24.21116087 10.8926951 29.97957636 14.87321145 35 20 C35 20.66 35 21.32 35 22 C35.66 22 36.32 22 37 22 C38.29345703 23.37011719 38.29345703 23.37011719 39.7578125 25.296875 C40.29752686 26.00303955 40.83724121 26.7092041 41.39331055 27.43676758 C41.96476807 28.20013428 42.53622559 28.96350098 43.125 29.75 C43.70741455 30.52045654 44.2898291 31.29091309 44.88989258 32.0847168 C56.44163551 47.48010656 56.44163551 47.48010656 60 55 C59.01 55 58.02 55 57 55 C54 50.77777778 54 50.77777778 54 48 C53.34 48 52.68 48 52 48 C51.68546875 47.40832031 51.3709375 46.81664062 51.046875 46.20703125 C48.65559003 41.79179725 46.18824641 37.89674562 43 34 C43 33.34 43 32.68 43 32 C42.34 32 41.68 32 41 32 C39.66796875 30.42578125 39.66796875 30.42578125 38.1875 28.3125 C34.99189172 23.92241678 31.89758883 20.1385533 27.1875 17.3125 C26.1046875 16.6628125 26.1046875 16.6628125 25 16 C25 15.34 25 14.68 25 14 C24.2884375 13.73058594 23.576875 13.46117187 22.84375 13.18359375 C19.94408783 11.97672886 17.26281966 10.55396721 14.5 9.0625 C8.16666871 5.86069257 1.95339017 4.26253968 -5 3 C-6.134375 2.773125 -7.26875 2.54625 -8.4375 2.3125 C-17.77075918 1.49379305 -26.23940594 1.76515248 -35.375 3.75 C-36.11145752 3.90686279 -36.84791504 4.06372559 -37.60668945 4.2253418 C-42.85519567 5.45837114 -47.25191876 7.44911211 -52 10 C-52.33 9.01 -52.66 8.02 -53 7 C-45.41647665 3.88576314 -38.13883722 1.14022357 -30 0 C-28.81470703 -0.18369141 -28.81470703 -0.18369141 -27.60546875 -0.37109375 C-18.42342295 -1.51356028 -9.19559278 -0.61939226 0 0 Z " fill="#0AE1DB" transform="translate(319,264)"/>
<path d="M0 0 C4.18688786 3.51119414 8.13382901 7.13382901 12 11 C12.66 11.33 13.32 11.66 14 12 C14 12.66 14 13.32 14 14 C14.99 14 15.98 14 17 14 C17 14.66 17 15.32 17 16 C17.99 16 18.98 16 20 16 C20 16.66 20 17.32 20 18 C20.99 18 21.98 18 23 18 C23 18.66 23 19.32 23 20 C24.175625 19.9690625 24.175625 19.9690625 25.375 19.9375 C28 20 28 20 30 21 C30 21.66 30 22.32 30 23 C30.928125 22.95875 31.85625 22.9175 32.8125 22.875 C36 23 36 23 39 25 C40.66619446 25.0396713 42.33391013 25.04384447 44 25 C44.33 25.33 44.66 25.66 45 26 C46.51905542 26.07641124 48.04166078 26.08289874 49.5625 26.0625 C50.56821045 26.05412109 51.5739209 26.04574219 52.61010742 26.03710938 C54.28810425 26.01874023 54.28810425 26.01874023 56 26 C68.73701162 25.92201649 81.45513343 26.17043818 94.1875 26.5 C95.12037842 26.52400879 96.05325684 26.54801758 97.0144043 26.57275391 C102.34306211 26.7106975 107.6715752 26.85334253 113 27 C113 27.33 113 27.66 113 28 C104.26302946 28.22507133 95.52590869 28.42626824 86.78773403 28.59840012 C82.72864722 28.6790798 78.67005598 28.76746007 74.61157227 28.87451172 C70.68252608 28.97784789 66.75353177 29.05955583 62.82371712 29.12732697 C61.33713328 29.15656351 59.85067168 29.19312091 58.36446953 29.2377243 C39.64539202 29.78751039 23.66506053 24.94051231 9.4375 12.3125 C7.94745503 10.88627903 6.46677662 9.45014021 5 8 C4.43152344 7.48050781 3.86304688 6.96101562 3.27734375 6.42578125 C1.875 5.125 1.875 5.125 0 3 C0 2.01 0 1.02 0 0 Z " fill="#0B7184" transform="translate(468,732)"/>
<path d="M0 0 C0.33 0 0.66 0 1 0 C1.33 42.24 1.66 84.48 2 128 C1.34 128 0.68 128 0 128 C0 133.28 0 138.56 0 144 C-0.33 144 -0.66 144 -1 144 C-1.03154982 133.87501227 -1.05129774 123.75002848 -1.0625 113.625 C-1.06335602 112.85693779 -1.06421204 112.08887558 -1.06509399 111.29753876 C-1.09081961 85.06984269 -0.88031864 58.84985456 -0.5 32.625 C-0.48804218 31.8000428 -0.47608437 30.9750856 -0.46376419 30.1251297 C-0.31745917 20.0832863 -0.16303276 10.04158631 0 0 Z " fill="#0C8A96" transform="translate(223,544)"/>
<path d="M0 0 C0.66 0 1.32 0 2 0 C3.48828125 1.95703125 3.48828125 1.95703125 5.3125 4.8125 C9.60430047 11.42376616 14.04359096 17.92299788 18.51879883 24.41137695 C21.132981 28.21585803 23.64851868 32.02612793 26 36 C27.51007896 38.29975328 29.02933172 40.59079453 30.5625 42.875 C31.45966644 44.21612508 32.35680096 45.55727151 33.25390625 46.8984375 C33.71039551 47.5800293 34.16688477 48.26162109 34.63720703 48.96386719 C37.17328273 52.75298781 39.70145227 56.54739577 42.22631836 60.34399414 C44.42067751 63.64139086 46.62742452 66.92963199 48.8515625 70.20703125 C49.315625 70.89410156 49.7796875 71.58117187 50.2578125 72.2890625 C51.15250862 73.61321276 52.05081089 74.93493533 52.953125 76.25390625 C56 80.7750756 56 80.7750756 56 83 C56.66 83 57.32 83 58 83 C58.99 84.98 59.98 86.96 61 89 C60.01 89 59.02 89 58 89 C56.73342896 87.61894226 56.73342896 87.61894226 55.45751953 85.64331055 C54.96972519 84.89966751 54.48193085 84.15602448 53.97935486 83.3898468 C53.45249588 82.56381454 52.9256369 81.73778229 52.3828125 80.88671875 C51.82135025 80.02576096 51.259888 79.16480316 50.68141174 78.27775574 C48.82003697 75.42022739 46.97278538 72.55383055 45.125 69.6875 C42.51415417 65.66988661 39.8958307 61.65716746 37.27734375 57.64453125 C36.6036525 56.61013916 35.92996124 55.57574707 35.2358551 54.51000977 C30.43437532 47.15169418 25.55787752 39.84767911 20.62890625 32.57421875 C19.62262177 31.08909035 19.62262177 31.08909035 18.5960083 29.57395935 C15.98178953 25.71991856 13.364723 21.86786339 10.74053955 18.02059937 C8.93142515 15.36777255 7.12752832 12.71146202 5.32421875 10.0546875 C4.78189102 9.2640239 4.23956329 8.47336029 3.68080139 7.65873718 C3.19276535 6.9384584 2.70472931 6.21817963 2.2019043 5.47607422 C1.77419235 4.84933807 1.34648041 4.22260193 0.9058075 3.57687378 C0 2 0 2 0 0 Z " fill="#099EA7" transform="translate(425,480)"/>
<path d="M0 0 C3.6785001 3.47234948 6.5734141 7.05215975 9.3125 11.3125 C10.18219686 12.63547899 11.05199618 13.95839064 11.921875 15.28125 C13.57556451 17.81380797 15.22662009 20.34806583 16.87695312 22.8828125 C18.93127089 26.03103953 20.99666484 29.1718216 23.0625 32.3125 C23.71065674 33.31385986 24.35881348 34.31521973 25.02661133 35.34692383 C29.48788052 42.11858308 34.41253093 48.12512464 40 54 C39.34 54.99 38.68 55.98 38 57 C36.62437146 55.71034824 35.29233607 54.37310707 34 53 C34 52.34 34 51.68 34 51 C33.34 51 32.68 51 32 51 C31.67 50.01 31.34 49.02 31 48 C30.34 47.525625 29.68 47.05125 29 46.5625 C26.62791584 44.70930925 26.62138952 43.84063779 26 41 C25.0206121 39.97980427 24.02104551 38.97850195 23 38 C22.67 37.01 22.34 36.02 22 35 C21.154375 34.195625 20.30875 33.39125 19.4375 32.5625 C17 30 17 30 17 26 C16.34 26 15.68 26 15 26 C13.0546875 23.953125 13.0546875 23.953125 10.875 21.25 C10.15054687 20.36828125 9.42609375 19.4865625 8.6796875 18.578125 C7 16 7 16 7 12 C6.34 12 5.68 12 5 12 C4.16180842 10.37750059 3.3295884 8.75191503 2.5 7.125 C2.0359375 6.22007812 1.571875 5.31515625 1.09375 4.3828125 C0 2 0 2 0 0 Z " fill="#0C8899" transform="translate(481,660)"/>
<path d="M0 0 C0.33 0 0.66 0 1 0 C1.92776465 5.49004724 2.13720418 10.7701569 2.11352539 16.33178711 C2.11367142 17.23989136 2.11381744 18.14799561 2.1139679 19.08361816 C2.11327501 22.0648849 2.10551199 25.04608802 2.09765625 28.02734375 C2.09578985 30.10242173 2.094367 32.17750015 2.09336853 34.25257874 C2.08956083 39.69903797 2.07974553 45.1454703 2.06866455 50.59191895 C2.0584128 56.15567664 2.05386286 61.7194387 2.04882812 67.28320312 C2.03812163 78.18881387 2.02106628 89.09440469 2 100 C1.01 100 0.02 100 -1 100 C-1 87.13 -1 74.26 -1 61 C-0.67 61 -0.34 61 0 61 C0 48.79 0 36.58 0 24 C-0.33 24 -0.66 24 -1 24 C-1.12867289 15.93649887 -0.79681084 8.02502344 0 0 Z " fill="#0AD9D6" transform="translate(545,357)"/>
<path d="M0 0 C0.66 0 1.32 0 2 0 C2.6509259 1.24735567 3.29551669 2.49801832 3.9375 3.75 C4.29714844 4.44609375 4.65679688 5.1421875 5.02734375 5.859375 C8.01099799 12.42581083 8.1536879 20.53253251 5.75 27.3125 C1.9947512 35.84873686 -3.44406397 41.68216439 -12 45.375 C-16.23571308 46.92465113 -19.52045855 47.55994268 -24 47 C-24.66 46.34 -25.32 45.68 -26 45 C-24.78763672 44.80083984 -24.78763672 44.80083984 -23.55078125 44.59765625 C-22.48214844 44.42105469 -21.41351562 44.24445312 -20.3125 44.0625 C-19.25675781 43.88847656 -18.20101562 43.71445312 -17.11328125 43.53515625 C-14.39750396 43.06832879 -11.69875765 42.55577384 -9 42 C-9 41.34 -9 40.68 -9 40 C-7.515 39.505 -7.515 39.505 -6 39 C-0.22450789 33.8020571 2.23844096 29.76790217 3 22 C3.66 22 4.32 22 5 22 C5 18.7 5 15.4 5 12 C4.34 11.67 3.68 11.34 3 11 C2.25881795 8.68925595 1.59793673 6.35188447 1 4 C0.79375 3.195625 0.5875 2.39125 0.375 1.5625 C0.25125 1.046875 0.1275 0.53125 0 0 Z " fill="#0F7283" transform="translate(794,714)"/>
<path d="M0 0 C4.875 4.75 4.875 4.75 6 7 C6.99 7 7.98 7 9 7 C9.20625 7.99 9.4125 8.98 9.625 10 C10.76154455 14.07673587 12.99059595 16.79951396 15.6015625 20.06640625 C17.39712726 22.54910054 18.2606712 25.0426848 19 28 C19.66 28 20.32 28 21 28 C24 32.38461538 24 32.38461538 24 35 C25.485 35.495 25.485 35.495 27 36 C27.9921875 37.63671875 27.9921875 37.63671875 28.875 39.6875 C30.77329862 43.75320471 33.02814215 46.64713473 36 50 C37.0111222 51.32491874 38.01663902 52.65434813 39 54 C38.505 54.99 38.505 54.99 38 56 C33.85121197 54.61707066 32.56142435 51.717588 30.3125 48.1875 C29.41284535 46.80593427 28.5131048 45.42442448 27.61328125 44.04296875 C27.16936035 43.35509277 26.72543945 42.6672168 26.26806641 41.95849609 C24.53877638 39.28765193 22.77074514 36.64349529 21 34 C18.83872323 30.76026796 16.68015119 27.51880093 14.52734375 24.2734375 C13.66414327 22.97390468 12.80086161 21.67442578 11.9375 20.375 C11.51678223 19.74045898 11.09606445 19.10591797 10.66259766 18.45214844 C7.61277498 13.86968582 4.44902118 9.38254483 1.1796875 4.953125 C0 3 0 3 0 0 Z " fill="#0A939F" transform="translate(485,569)"/>
<path d="M0 0 C0.66 0.33 1.32 0.66 2 1 C1.91566313 9.55368019 1.82080607 18.10715104 1.71247292 26.66055775 C1.6625023 30.63214937 1.61617245 34.60371429 1.578125 38.57543945 C1.54128167 42.40754936 1.49492457 46.23943633 1.44193649 50.07135582 C1.42338742 51.53415712 1.40828133 52.99700621 1.39665604 54.45987892 C1.37980201 56.50709545 1.35077023 58.55380083 1.31884766 60.60083008 C1.30552399 61.76665115 1.29220032 62.93247223 1.2784729 64.13362122 C1 67 1 67 -1 70 C-1.02320931 61.75906417 -1.04095881 53.5181421 -1.05181217 45.27718163 C-1.05702223 41.45023821 -1.0640857 37.62331723 -1.07543945 33.79638672 C-1.08633515 30.10055955 -1.09229097 26.4047539 -1.09487724 22.7089119 C-1.09671947 21.30157762 -1.10031683 19.89424447 -1.10573006 18.4869194 C-1.11302913 16.51000882 -1.11340881 14.5330764 -1.11352539 12.55615234 C-1.115746 11.43252289 -1.11796661 10.30889343 -1.12025452 9.1512146 C-1.00078322 6.02052394 -0.58511337 3.07480216 0 0 Z " fill="#06D6D3" transform="translate(273,339)"/>
<path d="M0 0 C3.51103676 3.03414397 6.42475614 6.13713421 9 10 C8.67 10.99 8.34 11.98 8 13 C7.38125 12.11248047 7.38125 12.11248047 6.75 11.20703125 C2.22570978 5.01642879 -1.95007356 0.11482294 -9.671875 -1.58984375 C-18.90390263 -2.72472008 -25.43043543 -1.07288185 -33.015625 4.2890625 C-37.20244418 7.89895778 -39.46121171 12.47742005 -40 18 C-40.20141547 22.47691668 -40.09382036 26.62471855 -39 31 C-39.99 31.495 -39.99 31.495 -41 32 C-43.09141181 24.84426043 -44.07545091 17.84846 -41.05859375 10.80078125 C-36.83939011 3.4902799 -30.97331003 -1.24558381 -23 -4 C-14.89269047 -6.11495031 -6.90261707 -4.69995268 0 0 Z " fill="#0BB2B6" transform="translate(378,507)"/>
<path d="M0 0 C4.02054746 3.73540225 6.86666029 7.59959612 9.75 12.25 C13.2140397 17.74246452 16.76689842 23.15924623 20.4609375 28.5 C20.84544067 29.05749939 21.22994385 29.61499878 21.62609863 30.18939209 C23.17401978 32.43264 24.72231084 34.67540087 26.28649902 36.90734863 C27.38828707 38.48009937 28.47949045 40.06024877 29.5703125 41.640625 C30.20727051 42.55360352 30.84422852 43.46658203 31.50048828 44.40722656 C33.02041252 47.03529485 33.48365481 49.04191304 34 52 C34.66 52.99 35.32 53.98 36 55 C32.85879539 53.916826 32.04732628 53.08373111 30.375 50.125 C29.694375 48.578125 29.694375 48.578125 29 47 C27.69495823 43.83795653 27.69495823 43.83795653 25 42 C25 41.01 25 40.02 25 39 C24.34 39 23.68 39 23 39 C22.68546875 38.33613281 22.3709375 37.67226563 22.046875 36.98828125 C19.72974387 32.20745346 17.44383306 28.08157992 14 24 C14 23.34 14 22.68 14 22 C13.34 22 12.68 22 12 22 C11.319375 20.5459375 11.319375 20.5459375 10.625 19.0625 C9.34213779 15.92920418 9.34213779 15.92920418 7 15 C6.03515625 13.328125 6.03515625 13.328125 5.0625 11.25 C3.87807569 8.77468628 2.68084455 6.47567318 1.25 4.125 C0 2 0 2 0 0 Z " fill="#0B94A2" transform="translate(556,610)"/>
<path d="M0 0 C3 1 3 1 4.6875 4.0625 C5.120625 5.031875 5.55375 6.00125 6 7 C6.66 7 7.32 7 8 7 C8.28875 8.134375 8.5775 9.26875 8.875 10.4375 C9.24625 11.613125 9.6175 12.78875 10 14 C10.66 14.33 11.32 14.66 12 15 C13.26047107 16.77663682 14.46123378 18.59606744 15.625 20.4375 C16.25664062 21.42621094 16.88828125 22.41492188 17.5390625 23.43359375 C19 26 19 26 19 28 C19.61875 28.226875 20.2375 28.45375 20.875 28.6875 C23.66733034 30.41217462 23.82759947 31.96555156 25 35 C25.845625 36.010625 26.69125 37.02125 27.5625 38.0625 C29.69025202 40.62671397 30.62961844 41.79002646 31 45 C30.01 45 29.02 45 28 45 C26.16577148 42.75952148 26.16577148 42.75952148 24.12109375 39.62109375 C23.75233627 39.06172623 23.3835788 38.5023587 23.00364685 37.92604065 C21.80492319 36.10286339 20.62108216 34.27053555 19.4375 32.4375 C18.62414587 31.19274711 17.80985486 29.9486059 16.99462891 28.70507812 C15.38955158 26.25512803 13.78934588 23.80209561 12.19189453 21.34716797 C10.35614396 18.5336322 8.48593408 15.74601602 6.58984375 12.97265625 C5.88420288 11.93830444 5.88420288 11.93830444 5.16430664 10.88305664 C4.3280881 9.66174371 3.48767305 8.44328943 2.64233398 7.22827148 C0.82757631 4.55318425 0 3.31551855 0 0 Z " fill="#0D8897" transform="translate(398,628)"/>
<path d="M0 0 C3 1 3 1 4.5625 4 C5.036875 4.99 5.51125 5.98 6 7 C6.66 7.33 7.32 7.66 8 8 C8 8.66 8 9.32 8 10 C8.99 10 9.98 10 11 10 C11 10.66 11 11.32 11 12 C15.00216452 13.03281665 18.71967799 13.05110078 22.81640625 12.9375 C25.02222429 13.00063612 26.88675358 13.38663143 29 14 C29 13.34 29 12.68 29 12 C30.5778125 11.5978125 30.5778125 11.5978125 32.1875 11.1875 C35.951236 10.1798452 35.951236 10.1798452 38.8125 8.3125 C39.534375 7.879375 40.25625 7.44625 41 7 C41.66 7.33 42.32 7.66 43 8 C36.13487267 14.04785027 30.28802574 16.97111034 21 17 C13.89491591 16.39362919 7.29075571 12.66129657 2.54296875 7.37890625 C0.6951618 4.76063562 0 3.24138942 0 0 Z " fill="#0F7080" transform="translate(225,740)"/>
<path d="M0 0 C0 0.99 0 1.98 0 3 C-1.6171875 4.5078125 -1.6171875 4.5078125 -3.875 6.125 C-9.22052079 10.10892587 -14.11705757 14.46641951 -19 19 C-19.64066406 19.57492187 -20.28132812 20.14984375 -20.94140625 20.7421875 C-26.01123021 25.48309671 -29.465894 31.05969417 -33 37 C-33.66 36.34 -34.32 35.68 -35 35 C-26.37050595 21.18798858 -15.30623436 6.83974241 0 0 Z " fill="#08D9D5" transform="translate(541,277)"/>
<path d="M0 0 C-1 3 -1 3 -4.25 4.9375 C-15.31968641 11.57533709 -23.77736053 21.47398278 -31 32 C-31.66 31.34 -32.32 30.68 -33 30 C-26.74425696 20.65318392 -12.66383381 0 0 0 Z " fill="#09DBD8" transform="translate(266,272)"/>
<path d="M0 0 C0.66 0 1.32 0 2 0 C3.48828125 1.95703125 3.48828125 1.95703125 5.3125 4.8125 C9.60430047 11.42376616 14.04359096 17.92299788 18.51879883 24.41137695 C21.13109805 28.21311771 23.69076565 32.00324825 26 36 C26.556875 36.928125 27.11375 37.85625 27.6875 38.8125 C28.120625 39.534375 28.55375 40.25625 29 41 C28.01 41 27.02 41 26 41 C24.6521759 39.53286743 24.6521759 39.53286743 23.27270508 37.45166016 C22.49223564 36.29012924 22.49223564 36.29012924 21.69599915 35.10513306 C20.86614754 33.83492813 20.86614754 33.83492813 20.01953125 32.5390625 C19.44667892 31.6781601 18.8738266 30.81725769 18.28361511 29.93026733 C17.07260287 28.10584421 15.86662776 26.27806918 14.6652832 24.44726562 C12.82022124 21.63676144 10.95941942 18.83722236 9.09570312 16.0390625 C7.92353636 14.2688531 6.75228131 12.49803958 5.58203125 10.7265625 C5.02272415 9.88380768 4.46341705 9.04105286 3.88716125 8.17276001 C3.37630478 7.39210175 2.8654483 6.61144348 2.33911133 5.80712891 C1.88627274 5.11873932 1.43343414 4.43034973 0.96687317 3.72109985 C0 2 0 2 0 0 Z " fill="#08ADB2" transform="translate(425,480)"/>
<path d="M0 0 C2.89845623 3.53782158 5.54596471 7.17017514 8.109375 10.95703125 C8.48104797 11.50485764 8.85272095 12.05268402 9.23565674 12.61711121 C10.40905712 14.34759403 11.57957183 16.08000589 12.75 17.8125 C13.55059041 18.99426993 14.35136987 20.17591181 15.15234375 21.35742188 C17.10374932 24.2368048 19.05257388 27.11792368 21 30 C20.01 30.99 19.02 31.98 18 33 C18 31.68 18 30.36 18 29 C17.34 29 16.68 29 16 29 C12 22.25 12 22.25 12 20 C11.01 19.67 10.02 19.34 9 19 C8.29046713 17.35112604 7.63080757 15.68056658 7 14 C5.85631843 12.26202662 4.66684171 10.5534749 3.4375 8.875 C1.45648138 6.16499947 0.06538377 4.1961513 -1 1 C-0.67 0.67 -0.34 0.34 0 0 Z " fill="#07DED8" transform="translate(379,319)"/>
<path d="M0 0 C0.66 0.33 1.32 0.66 2 1 C2.90023013 20.48498112 2.90023013 20.48498112 -1.41796875 28.28515625 C-3.38668304 30.41914532 -5.26586064 31.1131279 -8 32 C-7.505 30.515 -7.505 30.515 -7 29 C-6.34 28.67 -5.68 28.34 -5 28 C-4.09274566 25.88672575 -4.09274566 25.88672575 -3.375 23.4375 C-3.11460937 22.61121094 -2.85421875 21.78492188 -2.5859375 20.93359375 C-2.39257812 20.29550781 -2.19921875 19.65742187 -2 19 C-1.67 19 -1.34 19 -1 19 C-0.67 12.73 -0.34 6.46 0 0 Z " fill="#0D798A" transform="translate(272,717)"/>
<path d="M0 0 C0.33 0 0.66 0 1 0 C2.2398524 12.44280443 2.2398524 12.44280443 2 17 C1.67 17.33 1.34 17.66 1 18 C0.87802192 19.38050858 0.82231101 20.76697647 0.79467773 22.15258789 C0.77473251 23.03342545 0.75478729 23.914263 0.73423767 24.8217926 C0.71752518 25.77907761 0.70081268 26.73636261 0.68359375 27.72265625 C0.66281265 28.69786728 0.64203156 29.67307831 0.62062073 30.67784119 C0.55501588 33.8059863 0.49618972 36.93421822 0.4375 40.0625 C0.39432517 42.1777435 0.35071123 44.29297809 0.30664062 46.40820312 C0.19932345 51.60537587 0.0975778 56.80263577 0 62 C-0.33 62 -0.66 62 -1 62 C-1.0250233 55.74186482 -1.0430104 49.48375981 -1.05493164 43.22558594 C-1.05991001 41.10383597 -1.06669512 38.98208935 -1.07543945 36.86035156 C-1.12493024 24.5284113 -1.0024843 12.29653794 0 0 Z " fill="#107F8D" transform="translate(223,672)"/>
<path d="M0 0 C0.94875 0.04125 1.8975 0.0825 2.875 0.125 C2.875 0.785 2.875 1.445 2.875 2.125 C8.155 2.125 13.435 2.125 18.875 2.125 C15.03827717 4.68281522 11.92964013 4.37806456 7.48828125 4.3203125 C6.67127243 4.3174826 5.85426361 4.31465271 5.01249695 4.31173706 C2.40401541 4.30054541 -0.2041223 4.2754429 -2.8125 4.25 C-4.58137525 4.23996888 -6.35025588 4.23084326 -8.11914062 4.22265625 C-12.45455949 4.20060942 -16.78972145 4.1660867 -21.125 4.125 C-21.125 3.795 -21.125 3.465 -21.125 3.125 C-19.99320313 3.07601562 -18.86140625 3.02703125 -17.6953125 2.9765625 C-16.21351661 2.90153486 -14.731747 2.82598703 -13.25 2.75 C-12.50363281 2.7190625 -11.75726562 2.688125 -10.98828125 2.65625 C-6.45994595 2.41147512 -4.10466721 0.16418669 0 0 Z " fill="#0B899D" transform="translate(709.125,700.875)"/>
<path d="M0 0 C1.1034375 -0.00257813 2.206875 -0.00515625 3.34375 -0.0078125 C4.50132812 -0.00007812 5.65890625 0.00765625 6.8515625 0.015625 C8.00140625 0.00789062 9.15125 0.00015625 10.3359375 -0.0078125 C11.44195313 -0.00523437 12.54796875 -0.00265625 13.6875 0 C14.70118652 0.00225586 15.71487305 0.00451172 16.75927734 0.00683594 C19.49259502 0.26715191 21.14253058 0.86451016 23.4765625 2.265625 C20.56810485 3.09826661 17.97866393 3.39402498 14.95703125 3.3984375 C14.09916016 3.39972656 13.24128906 3.40101563 12.35742188 3.40234375 C11.46861328 3.39847656 10.57980469 3.39460937 9.6640625 3.390625 C8.78685547 3.39449219 7.90964844 3.39835938 7.00585938 3.40234375 C2.0553334 3.39493833 -2.64356652 3.10445685 -7.5234375 2.265625 C-4.8883093 -0.3695032 -3.67167813 0.00818918 0 0 Z " fill="#0E7F91" transform="translate(684.5234375,700.734375)"/>
<path d="M0 0 C0.66 0.33 1.32 0.66 2 1 C1.57847656 1.59167969 1.15695312 2.18335938 0.72265625 2.79296875 C-0.09912109 3.97826172 -0.09912109 3.97826172 -0.9375 5.1875 C-1.48277344 5.96480469 -2.02804687 6.74210938 -2.58984375 7.54296875 C-6.0797149 13.62365837 -5.65980674 21.36077305 -4 28 C-4.66 28.33 -5.32 28.66 -6 29 C-8.095246 21.8311418 -9.21106129 14.63085914 -5.8828125 7.66015625 C-4.13292029 4.79716693 -2.3751055 2.3751055 0 0 Z " fill="#0BA6AD" transform="translate(343,510)"/>
<path d="M0 0 C0.721875 0.309375 1.44375 0.61875 2.1875 0.9375 C4.80307309 1.92560539 7.25118982 2.5287754 10 3 C10 4.32 10 5.64 10 7 C10.66 7 11.32 7 12 7 C16.65909091 11.31818182 16.65909091 11.31818182 18 14 C17.01 14.33 16.02 14.66 15 15 C14.5978125 14.0409375 14.5978125 14.0409375 14.1875 13.0625 C13.11332248 10.66868314 13.11332248 10.66868314 10 10 C10 9.34 10 8.68 10 8 C9.46375 7.731875 8.9275 7.46375 8.375 7.1875 C5.58333333 5.79166667 2.79166667 4.39583333 0 3 C0 2.01 0 1.02 0 0 Z " fill="#07D3D0" transform="translate(310,317)"/>
<path d="M0 0 C0.99 0.33 1.98 0.66 3 1 C-1.51253482 5.7632312 -1.51253482 5.7632312 -4.1875 7.0625 C-6.58293146 8.30151627 -6.89027738 9.57248176 -8 12 C-9.3050581 13.68889872 -10.63360658 15.3603279 -12 17 C-13 14 -13 14 -12.3125 12.0625 C-10.78821933 9.66720181 -9.13516296 7.86826759 -7 6 C-6.34 6 -5.68 6 -5 6 C-5 5.34 -5 4.68 -5 4 C-2.6875 1.8125 -2.6875 1.8125 0 0 Z " fill="#07D6D3" transform="translate(565,324)"/>
<path d="M0 0 C2.86392794 3.52830761 5.58784278 7.12984917 8.25 10.8125 C8.95640625 11.78832031 9.6628125 12.76414062 10.390625 13.76953125 C10.92171875 14.50558594 11.4528125 15.24164063 12 16 C11.67 16.66 11.34 17.32 11 18 C10.34 18 9.68 18 9 18 C8.71125 17.360625 8.4225 16.72125 8.125 16.0625 C7.17176549 13.84793921 7.17176549 13.84793921 5 13 C4.87625 12.195625 4.7525 11.39125 4.625 10.5625 C4.41875 9.716875 4.2125 8.87125 4 8 C3.34 7.67 2.68 7.34 2 7 C1.34 6.67 0.68 6.34 0 6 C-0.8125 3.4375 -0.8125 3.4375 -1 1 C-0.67 0.67 -0.34 0.34 0 0 Z " fill="#06D5D1" transform="translate(432,398)"/>
<path d="M0 0 C0.33 0.66 0.66 1.32 1 2 C1.74765625 1.97679687 2.4953125 1.95359375 3.265625 1.9296875 C4.25046875 1.91164063 5.2353125 1.89359375 6.25 1.875 C7.22453125 1.85179687 8.1990625 1.82859375 9.203125 1.8046875 C12 2 12 2 16 4 C6.76 4 -2.48 4 -12 4 C-12 3.34 -12 2.68 -12 2 C-8.04 2 -4.08 2 0 2 C0 1.34 0 0.68 0 0 Z " fill="#0C879B" transform="translate(759,701)"/>
<path d="M0 0 C4.95486463 0.45044224 8.4991214 2.57886807 12 6 C13.92831849 8.88522841 15.51780225 11.86484438 17 15 C16.01 15.495 16.01 15.495 15 16 C14.67 14.68 14.34 13.36 14 12 C13.34 12 12.68 12 12 12 C11.67 11.01 11.34 10.02 11 9 C7.51340794 5.83037086 4.06422113 3.39071831 0 1 C0 0.67 0 0.34 0 0 Z " fill="#0BDAD6" transform="translate(782,267)"/>
<path d="M0 0 C0.99 0.33 1.98 0.66 3 1 C2.278125 1.556875 1.55625 2.11375 0.8125 2.6875 C-3.67968057 6.38107069 -7.45058445 10.39890577 -11 15 C-11.33 14.01 -11.66 13.02 -12 12 C-9.23463983 6.75980388 -5.24785731 2.68223818 0 0 Z " fill="#07D9D5" transform="translate(288,318)"/>
<path d="M0 0 C0 0.33 0 0.66 0 1 C-1.24716797 1.09087891 -1.24716797 1.09087891 -2.51953125 1.18359375 C-4.14955078 1.30927734 -4.14955078 1.30927734 -5.8125 1.4375 C-7.43091797 1.55931641 -7.43091797 1.55931641 -9.08203125 1.68359375 C-12.05989905 1.90212461 -12.05989905 1.90212461 -15 3 C-18.625 2.6875 -18.625 2.6875 -22 2 C-22.33 1.34 -22.66 0.68 -23 0 C-15.19636521 -1.14500285 -7.83007996 -0.79773542 0 0 Z " fill="#0E7587" transform="translate(759,702)"/>
<path d="M0 0 C0 3.56209836 -0.82989243 4.60568237 -2.8125 7.5 C-3.59560547 8.66015625 -3.59560547 8.66015625 -4.39453125 9.84375 C-5.81578461 11.75258663 -7.26709211 13.37637459 -9 15 C-9.33 14.34 -9.66 13.68 -10 13 C-8.71053695 11.20674674 -7.41835648 9.41544722 -6.125 7.625 C-5.04605469 6.12839844 -5.04605469 6.12839844 -3.9453125 4.6015625 C-2 2 -2 2 0 0 Z " fill="#0CCECD" transform="translate(243,289)"/>
<path d="M0 0 C3.44868587 4.08733141 6.23793154 8.43805907 9 13 C6.525 12.01 6.525 12.01 4 11 C4 10.01 4 9.02 4 8 C3.34 8 2.68 8 2 8 C2 7.01 2 6.02 2 5 C1.34 5 0.68 5 0 5 C-0.5625 3.0625 -0.5625 3.0625 -1 1 C-0.67 0.67 -0.34 0.34 0 0 Z " fill="#07D8D4" transform="translate(418,377)"/>
<path d="M0 0 C0.66 0.33 1.32 0.66 2 1 C1.56179109 5.55737263 1.14958831 8.57653445 -2 12 C-3.12377697 8.69564916 -2.89554742 6.9493138 -1.5625 3.75 C-1.27503906 3.04359375 -0.98757813 2.3371875 -0.69140625 1.609375 C-0.46324219 1.07828125 -0.23507812 0.5471875 0 0 Z " fill="#09D3D1" transform="translate(502,320)"/>
<path d="M0 0 C3.63559661 3.43361902 6.36113346 6.7973607 9 11 C8.67 11.66 8.34 12.32 8 13 C0 3.28571429 0 3.28571429 0 0 Z " fill="#0C8A97" transform="translate(571,633)"/>
<path d="M0 0 C1.98 0.99 1.98 0.99 4 2 C4 2.66 4 3.32 4 4 C4.99 4.33 5.98 4.66 7 5 C6.67 6.32 6.34 7.64 6 9 C2.91910327 6.22719294 1.31224548 3.93673644 0 0 Z " fill="#06D2D0" transform="translate(326,332)"/>
<path d="M0 0 C0.721875 0.309375 1.44375 0.61875 2.1875 0.9375 C4.80307309 1.92560539 7.25118982 2.5287754 10 3 C9.67 3.99 9.34 4.98 9 6 C5.21213403 5.4739075 2.82847776 4.61896089 0 2 C0 1.34 0 0.68 0 0 Z " fill="#06DCD8" transform="translate(310,317)"/>
<path d="M0 0 C0.66 0.33 1.32 0.66 2 1 C0.14285714 8.57142857 0.14285714 8.57142857 -3 11 C-4 8 -4 8 -3.22265625 5.95703125 C-2.83980469 5.24933594 -2.45695313 4.54164063 -2.0625 3.8125 C-1.68222656 3.09707031 -1.30195313 2.38164062 -0.91015625 1.64453125 C-0.60980469 1.10183594 -0.30945313 0.55914062 0 0 Z " fill="#09D0CE" transform="translate(232,304)"/>
<path d="M0 0 C0 3.3 0 6.6 0 10 C-0.66 10 -1.32 10 -2 10 C-2.33 7.03 -2.66 4.06 -3 1 C-1 0 -1 0 0 0 Z " fill="#0DD8D5" transform="translate(801,287)"/>
<path d="M0 0 C2.40072955 2.88087546 4.47291037 5.56404834 6 9 C4.68 8.34 3.36 7.68 2 7 C2 6.34 2 5.68 2 5 C1.01 4.67 0.02 4.34 -1 4 C-0.67 2.68 -0.34 1.36 0 0 Z " fill="#07DCD6" transform="translate(401,352)"/>
<path d="M0 0 C0.66 0 1.32 0 2 0 C2.41713515 1.43146378 2.8080497 2.87058886 3.1875 4.3125 C3.40792969 5.11300781 3.62835937 5.91351562 3.85546875 6.73828125 C3.90316406 7.48464844 3.95085938 8.23101563 4 9 C3.01 9.99 2.02 10.98 1 12 C0.67 8.04 0.34 4.08 0 0 Z " fill="#0E778A" transform="translate(574,704)"/>
<path d="M0 0 C2.99332739 0.9977758 3.94766315 1.7522025 6 4 C3.36 4 0.72 4 -2 4 C-2.33 3.34 -2.66 2.68 -3 2 C-2.01 2 -1.02 2 0 2 C0 1.34 0 0.68 0 0 Z " fill="#05DCDA" transform="translate(298,314)"/>
<path d="M0 0 C-3.99560608 2.83022097 -7.42737323 1.76210446 -12 1 C-8.00439392 -1.83022097 -4.57262677 -0.76210446 0 0 Z " fill="#0E7889" transform="translate(708,702)"/>
<path d="M0 0 C1.32 1.65 2.64 3.3 4 5 C3.01 6.485 3.01 6.485 2 8 C1.896875 7.360625 1.79375 6.72125 1.6875 6.0625 C1.460625 5.381875 1.23375 4.70125 1 4 C0.01 3.67 -0.98 3.34 -2 3 C-1 1 -1 1 0 0 Z " fill="#0C91A2" transform="translate(597,670)"/>
<path d="M0 0 C3 1 3 1 4.6875 4.0625 C5.120625 5.031875 5.55375 6.00125 6 7 C4.68 6.67 3.36 6.34 2 6 C2 5.34 2 4.68 2 4 C1.34 3.67 0.68 3.34 0 3 C0 2.01 0 1.02 0 0 Z " fill="#06CFCD" transform="translate(457,437)"/>
<path d="M0 0 C0.66 0.66 1.32 1.32 2 2 C-0.64 3.65 -3.28 5.3 -6 7 C-6 6.01 -6 5.02 -6 4 C-3 1.8125 -3 1.8125 0 0 Z " fill="#0BCCC9" transform="translate(792,309)"/>
<path d="M0 0 C1.65 1.65 3.3 3.3 5 5 C4.67 5.99 4.34 6.98 4 8 C0 3.375 0 3.375 0 0 Z " fill="#0F8D9A" transform="translate(387,612)"/>
<path d="M0 0 C3 1 3 1 4.75 3.4375 C5.36875 4.7059375 5.36875 4.7059375 6 6 C5.67 6.66 5.34 7.32 5 8 C0 2.25 0 2.25 0 0 Z " fill="#09BCBD" transform="translate(486,480)"/>
<path d="M0 0 C2.52588702 2.36292656 3.88820837 3.66462511 5 7 C3.68 6.34 2.36 5.68 1 5 C1 4.34 1 3.68 1 3 C0.01 2.67 -0.98 2.34 -2 2 C-1.34 1.34 -0.68 0.68 0 0 Z " fill="#06DCD7" transform="translate(411,367)"/>
<path d="M0 0 C3 1 3 1 3 1 Z " fill="#11E5DE" transform="translate(280,264)"/>
<path d="" fill="#108795" transform="translate(0,0)"/>
<path d="" fill="#108A98" transform="translate(0,0)"/>
<path d="M0 0 C2 1 2 1 2 1 Z " fill="#0FE5DE" transform="translate(569,264)"/>
<path d="" fill="#118192" transform="translate(0,0)"/>
<path d="" fill="#0E8293" transform="translate(0,0)"/>
<path d="" fill="#108795" transform="translate(0,0)"/>
<path d="" fill="#0B90A3" transform="translate(0,0)"/>
<path d="" fill="#0E909F" transform="translate(0,0)"/>
<path d="" fill="#128D9E" transform="translate(0,0)"/>
<path d="" fill="#108895" transform="translate(0,0)"/>
<path d="" fill="#108E9E" transform="translate(0,0)"/>
<path d="" fill="#10909E" transform="translate(0,0)"/>
<path d="" fill="#0D99A7" transform="translate(0,0)"/>
<path d="" fill="#0E97A4" transform="translate(0,0)"/>
<path d="" fill="#108D99" transform="translate(0,0)"/>
<path d="" fill="#118F9B" transform="translate(0,0)"/>
<path d="" fill="#118E9A" transform="translate(0,0)"/>
<path d="" fill="#0D9AAB" transform="translate(0,0)"/>
<path d="" fill="#0D9BAC" transform="translate(0,0)"/>
<path d="" fill="#0E9CA8" transform="translate(0,0)"/>
<path d="" fill="#0E9EAB" transform="translate(0,0)"/>
<path d="" fill="#09A5B2" transform="translate(0,0)"/>
<path d="" fill="#0D9BA4" transform="translate(0,0)"/>
<path d="" fill="#0CA6B0" transform="translate(0,0)"/>
<path d="" fill="#0BABB5" transform="translate(0,0)"/>
<path d="" fill="#0E9CA6" transform="translate(0,0)"/>
<path d="" fill="#0CB1BB" transform="translate(0,0)"/>
<path d="" fill="#0BA2AA" transform="translate(0,0)"/>
<path d="" fill="#0AAEB7" transform="translate(0,0)"/>
<path d="" fill="#06B1BA" transform="translate(0,0)"/>
<path d="" fill="#07B4BD" transform="translate(0,0)"/>
<path d="" fill="#08B6BE" transform="translate(0,0)"/>
<path d="" fill="#08BAC0" transform="translate(0,0)"/>
<path d="" fill="#0CBFC5" transform="translate(0,0)"/>
<path d="" fill="#0DAAB0" transform="translate(0,0)"/>
<path d="" fill="#09B7BE" transform="translate(0,0)"/>
<path d="" fill="#0BB8BC" transform="translate(0,0)"/>
<path d="" fill="#07BEC2" transform="translate(0,0)"/>
<path d="" fill="#0DAFB5" transform="translate(0,0)"/>
<path d="" fill="#0CB6B8" transform="translate(0,0)"/>
<path d="" fill="#11C9CC" transform="translate(0,0)"/>
<path d="" fill="#07CFCB" transform="translate(0,0)"/>
<path d="" fill="#12B0B4" transform="translate(0,0)"/>
<path d="" fill="#0FBBBD" transform="translate(0,0)"/>
<path d="" fill="#07D6D6" transform="translate(0,0)"/>
<path d="" fill="#06D2D0" transform="translate(0,0)"/>
<path d="" fill="#08D1D1" transform="translate(0,0)"/>
<path d="" fill="#07DFD9" transform="translate(0,0)"/>
<path d="" fill="#08DFDC" transform="translate(0,0)"/>
<path d="" fill="#0ECCCA" transform="translate(0,0)"/>
<path d="" fill="#06E2DD" transform="translate(0,0)"/>
<path d="" fill="#10D3CE" transform="translate(0,0)"/>
<path d="" fill="#0AEFE6" transform="translate(0,0)"/>
<path d="" fill="#09EBE1" transform="translate(0,0)"/>
<path d="" fill="#09EDE7" transform="translate(0,0)"/>
<path d="" fill="#08ECE7" transform="translate(0,0)"/>
<path d="" fill="#06F0EA" transform="translate(0,0)"/>
<path d="" fill="#11E6E1" transform="translate(0,0)"/>
<path d="" fill="#18E5DE" transform="translate(0,0)"/>
<path d="" fill="#10E6DE" transform="translate(0,0)"/>
</svg>
